<svg width="284" height="250" viewBox="0 0 284 250" fill="none" xmlns="http://www.w3.org/2000/svg">
<path d="M70.1404 67.8604C71.2686 68.4558 71.7976 69.3346 72.1588 70.8332C72.4548 71.3122 72.7396 71.7949 73.0151 72.2837H76.9155V69.9775L132.6 70.8161V77.1059C132.305 81.1442 132.347 83.5048 132.6 87.7984C109.887 85.5844 97.7668 85.1803 76.9155 85.4922C76.9749 84.9709 77.0271 84.48 77.0718 84.0115L73.8327 83.969V87.1694H76.3375C75.7461 110.028 78.4726 120.131 85.9714 135.81H83.2739V141.185C90.7501 141.351 98.7539 141.589 107.744 141.89V148.763C108.567 148.778 109.402 148.793 110.249 148.809V150.486L83.2739 152.792L87.5129 182.564L92.3298 222.189H25.0849V182.564V173.549H28.1677V168.936H37.609L39.8007 152.792L40.1138 150.486H15.6436V148.809V141.89C26.9891 141.441 36.7845 141.153 46.0869 141.011V135.81H38.7651C45.996 120.632 48.1786 110.19 47.821 87.1694H49.1698V83.6457L46.0869 83.6053C47.6642 79.957 48.9863 77.318 50.6371 74.9668L1.38536 74.1706L1 69.1389L1.38536 69.1554V58.2366C24.7563 61.6473 37.0177 62.6079 55.9135 60.9622V69.1554C59.2977 66.0004 61.279 64.4202 64.9024 61.8008L60.9232 1H65.1621H75.3741C73.6347 25.3939 74.0415 39.0729 76.3375 63.4781H68.2511L68.356 65.6014C68.9949 66.3646 69.5869 67.1144 70.1404 67.8604Z" fill="#FFB545"/>
<path d="M68.4377 67.2519C71.0282 67.8978 71.792 68.8893 72.2912 71.4451C72.2542 71.7449 72.2122 72.0239 72.1644 72.2837M68.4377 67.2519C66.8529 67.3253 65.8941 67.5884 65.3278 68.3002M68.4377 67.2519L68.2511 63.4781M69.401 75.6475C69.1089 75.7261 68.7887 75.7913 68.4377 75.8479C68.1646 75.8046 67.9079 75.7581 67.6669 75.7059M69.401 75.6475L69.7864 84.0246H72.6766L75.1814 133.504L75.7595 145.664H70.7498M69.401 75.6475C71.023 75.2115 71.7815 74.3637 72.1644 72.2837M69.401 75.6475L69.7864 75.2189L76.9155 75.4331M70.7498 145.664L68.0335 84.0246M70.7498 145.664H60.7305C62.0582 121.024 61.6822 107.469 59.9598 83.6053L68.0335 84.0246M67.6669 75.7059C67.1074 75.5847 66.6331 75.4329 66.2366 75.2189M67.6669 75.7059L68.0335 84.0246M72.1644 72.2837H76.9155V69.9775L132.6 70.8161V77.1059M132.6 77.1059C132.305 81.1442 132.347 83.5048 132.6 87.7984C109.887 85.5844 97.7668 85.1803 76.9155 85.4922C77.3634 81.5636 77.3993 79.3617 76.9155 75.4331M132.6 77.1059L76.9155 75.4331M66.2366 75.2189L1.38536 74.1706L1 69.1389L1.38536 69.1554M66.2366 75.2189C65.2285 74.6749 64.724 73.7292 64.6041 71.8644M64.6041 71.8644C64.5954 71.7295 64.5888 71.5898 64.5841 71.4451C64.6311 69.9207 64.8243 68.9331 65.3278 68.3002M64.6041 71.8644L55.9135 71.492M65.1621 1H60.9232L64.9024 61.8008M65.1621 1H75.3741C73.6347 25.3939 74.0415 39.0729 76.3375 63.4781H68.2511M65.1621 1L68.2511 63.4781M65.3278 68.3002L64.9024 61.8008M1.38536 69.1554V58.2366C24.7563 61.6473 37.0177 62.6079 55.9135 60.9622V69.1554M1.38536 69.1554L55.9135 71.492M55.9135 71.492V69.1554M64.9024 61.8008C61.279 64.4202 59.2977 66.0004 55.9135 69.1554M64.9024 61.8008C72.1279 69.2197 74.588 74.3418 78.0716 84.0246L73.8327 83.969M55.9135 69.1554C51.0483 73.5631 49.004 76.858 46.0869 83.6053L49.1698 83.6457M49.1698 83.6457V87.1694H47.821C48.1786 110.19 45.996 120.632 38.7651 135.81H46.0869V148.809M49.1698 83.6457L73.8327 83.969M73.8327 83.969V87.1694H76.3375C75.7461 110.028 78.4726 120.131 85.9714 135.81H83.2739V141.185M46.0869 148.809H15.6436M46.0869 148.809C60.7903 148.486 71.7031 148.383 83.2739 148.446M15.6436 148.809V150.486H40.1138L39.8007 152.792M15.6436 148.809V141.89C42.1549 140.84 60.2022 140.673 83.2739 141.185M87.5129 182.564L92.3298 222.189H25.0849V182.564M87.5129 182.564C62.4903 183.056 48.9065 182.991 25.0849 182.564M87.5129 182.564L83.2739 152.792M25.0849 182.564V173.549H28.1677V168.936H37.609L39.8007 152.792M83.2739 152.792L110.249 150.486V148.809C109.402 148.793 108.567 148.778 107.744 148.763M83.2739 152.792C68.1551 152.144 58.4374 152.214 39.8007 152.792M107.744 148.763V141.89C98.7539 141.589 90.7501 141.351 83.2739 141.185M107.744 148.763C98.5109 148.598 90.7549 148.487 83.2739 148.446M83.2739 141.185V148.446" stroke="black"/>
<path d="M109.094 179.365L128.366 148.028L182.598 150.639L184.166 133.926H186.631L187.528 107.551H189.769V95.0157H191.562V89.2706H189.993L189.769 84.8311C193.48 81.7672 194.629 79.918 195.595 76.4745C197.24 81.3592 198.514 82.8531 200.974 83.7865V89.2706H199.181V95.0157H200.75V107.028H202.767L203.439 133.926H206.128L207.473 150.639L237.278 149.334L238.622 137.06L239.743 149.334L242.482 157.69H262.152V156.123H263.049L263.945 149.334L264.842 156.123H265.738V158.474L276.046 178.843V171.27H277.615V167.614H278.287L279.184 161.085L280.08 167.614V171.27H281.201L282.993 179.365V188.505V202.085H199.853H143.157H109.094V179.365Z" fill="#15C5AF"/>
<path d="M109.094 179.365H143.157M109.094 179.365L128.366 148.028M109.094 179.365V202.085H143.157M143.157 179.365L128.366 148.028M143.157 179.365V202.085M143.157 179.365L199.853 182.76M128.366 148.028L182.598 150.639M143.157 202.085H199.853M199.853 202.085V182.76M199.853 202.085H282.993V188.505V179.365L281.201 171.27H280.08V167.614L279.184 161.085L278.287 167.614H277.615V171.27H276.046V178.843M199.853 182.76L231.899 181.454M199.853 182.76V172.576M182.598 150.639L184.166 133.926H186.631L187.528 107.551H189.769V95.0157H191.562V89.2706H189.993L189.769 84.8311C193.48 81.7672 194.629 79.918 195.595 76.4745M182.598 150.639L197.388 172.576H199.853M195.595 76.4745C197.24 81.3592 198.514 82.8531 200.974 83.7865V89.2706H199.181V95.0157H200.75V107.028H202.767L203.439 133.926H206.128L207.473 150.639M195.595 76.4745V68.9013M195.595 61.3281V68.9013M207.473 150.639L237.278 149.334M207.473 150.639L204.559 152.467L199.853 172.576M237.278 149.334L238.622 137.06L239.743 149.334M237.278 149.334H239.743M237.278 149.334L231.899 181.454M239.743 149.334L242.482 157.69M250.275 181.454V172.576L248.707 161.085L247.362 172.576L242.482 157.69M250.275 181.454H276.046V178.843M250.275 181.454H231.899M276.046 178.843L265.738 158.474V156.123H264.842M242.482 157.69H262.152V156.123H263.049M263.049 156.123L263.945 149.334L264.842 156.123M263.049 156.123H264.842M195.595 68.9013H197.836M195.595 68.9013H193.354" stroke="black"/>
<path d="M115.544 58.7082C116.82 57.1671 117.722 56.3357 121.832 55.2912C124.449 54.9252 126.226 54.8813 130.339 55.2912C138.291 58.0913 141.128 60.0874 145.257 63.8926C157.381 80.3736 161.462 90.21 163.504 108.903C163.736 121.463 162.739 128.975 160.027 137.653C173.174 141.208 179.998 143.155 180.889 145.665C187.637 153.772 190.983 158.422 195.314 167.11C201.399 181.759 207.418 190.497 222.562 206.936C224.616 209.945 225.054 211.718 225.274 214.948C226.163 219.161 226.56 221.501 227 225.552C224.658 229.858 223.231 232.087 218.863 233.093H217.26C211.978 231.073 209.088 229.43 204.068 225.552C191.598 208.774 184.104 199.1 174.378 188.083C174.654 191.153 174.615 192.806 171.888 194.799C170.739 198.741 169.682 201.428 159.929 215.301C158.438 221.008 157.745 224.392 157.217 231.326C156.123 231.358 155.055 231.392 154.011 231.427C152.121 237.7 152.631 241.459 155.121 248.411L73.7476 249C79.6674 239.498 81.6057 233.179 81.2684 219.19L77.6929 218.011C79.4306 208.496 80.5175 203.154 80.6519 193.743C68.9992 205.021 61.0579 210.815 47.4863 217.304H45.3903C43.132 215.982 42.1847 215.038 40.9517 213.063C39.9936 211.593 39.5578 210.768 39.2256 209.292C38.8147 207.316 38.9809 206.097 39.5955 204.225C41.0404 199.428 42.2533 196.844 45.6369 192.561C57.7377 177.875 64.7947 165.894 77.6929 140.245C81.2737 134.736 84.487 132.68 93.5509 131.879C92.467 130.486 91.4797 128.949 90.5153 127.166C90.6318 125.286 90.6425 124.209 90.5153 122.217C92.3577 98.3253 94.654 86.9762 100.995 70.3732C104.817 63.3436 106.868 61.397 110.489 58.7082C112.787 58.0611 113.979 57.8898 115.544 58.7082Z" fill="#B752C0"/>
<path d="M166.094 161.336C164.25 159.37 163.842 158.016 163.504 155.445C159.836 153.02 157.333 151.817 152.531 149.789C155.438 148.845 156.174 147.762 157.217 145.665C158.306 142.794 159.239 140.174 160.027 137.653M156.353 177.714L148.093 179.835L150.805 177.714H140.202M137.49 177.714L144.147 179.835L140.202 177.714M137.49 177.714H139.462M137.49 177.714L133.298 179.953L133.175 176.536M140.202 177.714H139.462M125.777 177.714C125.624 178.476 125.548 179.134 125.562 179.717M124.297 177.714C124.279 178.487 124.34 179.107 124.453 179.717M129.969 158.862L130.585 158.98M129.969 158.862C125.569 163.391 123.708 166.275 121.092 171.823L122.201 172.059C124.534 166.277 126.307 163.371 130.585 158.98M129.969 158.862L128.983 157.566M130.585 158.98L131.572 159.215M120.969 177.714C122.225 179.171 123.038 179.715 124.544 180.542M122.078 177.714C122.784 178.833 123.357 179.191 124.453 179.717M124.453 179.717C124.587 180.44 124.796 181.147 125.037 182.074C126.334 183.431 127.327 183.743 129.229 184.077C126.943 182.929 125.846 181.923 125.61 180.306M131.818 154.738L133.051 152.735L136.503 149.789C139.352 143.964 140.863 140.52 142.915 133.058C141.627 132.779 140.63 133.465 138.846 134.707L144.147 129.051C145.241 124.811 145.556 122.437 145.257 118.211L145.874 114.559L145.536 113.969M125.562 179.717C126.7 179.784 127.305 179.771 128.366 179.717L125.61 180.306M125.562 179.717C125.567 179.923 125.582 180.119 125.61 180.306M131.572 159.215C129.965 164.388 128.815 167.253 126.27 172.294M131.572 159.215L132.435 159.333M129.722 173.355C129.392 170.366 129.957 169.38 131.818 168.406C133.038 170.514 133.484 172.23 134.038 175.829M134.038 175.829L133.175 176.536M134.038 175.829C136.555 173.578 138.181 172.807 141.558 172.53C147.427 172.005 149.539 170.624 151.545 166.521L152.531 163.104C148.049 158.945 145.513 157.053 140.819 156.977L139.093 157.293L136.75 159.333L134.284 160.04C133.539 159.884 133.131 159.744 132.435 159.333M145.536 113.969L138.846 102.304L133.791 86.7512C132.076 83.4175 131.033 81.4999 125.284 75.7932C120.134 73.3032 116.659 73.3617 109.995 74.615C108.283 78.2306 107.416 80.2614 106.79 83.9234L100.995 88.4008C101.745 98.6632 102.849 104.386 105.557 114.559C109.499 119.76 112.261 123.276 117.226 126.341M145.536 113.969L142.545 120.45C137.877 126.72 133.969 128.626 125.654 130.347C122.182 129.028 119.478 127.731 117.226 126.341M114.187 152.146C114.253 148.881 114.186 147.05 113.818 143.78C108.647 148.948 104.815 151.782 96.4333 156.741C93.0122 159.263 92.263 161.596 91.7482 166.403C91.1792 162.437 91.1626 160.207 94.3374 156.152C89.4661 158.42 87.0574 160.046 83.1178 163.339C82.5364 164.206 82.3874 164.804 82.378 166.049L83.1178 168.759L81.6383 166.403C81.4358 164.584 81.6898 163.665 82.6246 162.161C84.1476 160.496 85.0711 159.747 86.9398 158.98C88.1873 157.139 88.9898 156.299 90.5153 154.974C97.3128 151.842 100.905 149.77 106.05 144.251C106.673 143.598 106.835 143.238 106.913 142.602C100.526 138.653 96.6447 135.855 93.5509 131.879M116.283 150.967C117.272 141.825 117.354 136.337 117.226 126.341M93.5509 131.879C92.467 130.486 91.4797 128.949 90.5153 127.166C90.6318 125.286 90.6425 124.209 90.5153 122.217C92.3577 98.3253 94.654 86.9762 100.995 70.3732C104.817 63.3436 106.868 61.397 110.489 58.7082C112.787 58.0611 113.979 57.8898 115.544 58.7082C116.82 57.1671 117.722 56.3357 121.832 55.2912C124.449 54.9252 126.226 54.8813 130.339 55.2912C138.291 58.0913 141.128 60.0874 145.257 63.8926C157.381 80.3736 161.462 90.21 163.504 108.903C163.736 121.463 162.739 128.975 160.027 137.653M93.5509 131.879C84.487 132.68 81.2737 134.736 77.6929 140.245C64.7947 165.894 57.7377 177.875 45.6369 192.561C42.2533 196.844 41.0404 199.428 39.5955 204.225C38.9809 206.097 38.8147 207.316 39.2256 209.292C39.5578 210.768 39.9936 211.593 40.9517 213.063C42.1847 215.038 43.132 215.982 45.3903 217.304H47.4863C61.0579 210.815 68.9992 205.021 80.6519 193.743M133.175 176.536V179.835L132.928 179.717C131.167 178.87 130.237 178.45 128.736 177.832L115.051 177.714C108.373 177.6 105.141 177.675 101.612 178.421C98.8068 179.516 97.3014 180.33 94.7073 182.074L84.8439 189.615C83.3877 191.07 81.9952 192.443 80.6519 193.743M133.175 176.536C131.53 174.509 130.403 173.777 128.243 172.765C119.874 171.935 118.247 171.104 117.64 169.348C116.434 167.532 116.133 166.335 116.16 163.928C118.444 160.923 119.897 159.421 122.941 157.212C123.716 156.562 124.216 156.33 125.284 156.27M125.284 156.27L124.051 155.563L120.106 156.505L116.653 157.801M125.284 156.27C126.326 156.723 127.035 157.007 127.996 157.293C128.295 157.382 128.618 157.471 128.983 157.566M128.983 157.566C130.302 157.29 130.746 156.974 130.832 156.034C129.614 154.787 128.844 154.245 127.38 153.442C125.981 152.822 125.198 152.504 123.804 152.028C121.829 151.658 120.828 151.602 119.489 152.146C116.85 153.189 115.192 153.817 112.092 154.974M132.435 159.333C132.205 158.203 132.143 157.615 132.292 156.743M132.292 156.743L132.311 156.741L130.832 151.556C127.44 149.38 125.414 148.464 121.462 147.668C116.098 151.479 113.055 153.177 107.53 154.974L104.941 158.508C99.9925 161.145 96.2872 163.67 90.5153 167.935L87.6796 168.759C77.9288 178.19 68.6581 181.81 54.3907 189.261M132.292 156.743L134.654 151.91C137.445 150.106 139.204 149.198 143.161 148.022C149.542 151 152.98 152.368 158.819 154.267C162.861 159.506 164.474 161.087 166.34 161.808L175.706 169.938M133.421 154.974L138.353 152.499H144.641L152.285 154.738M212.082 201.515L183.231 176.471M183.231 176.471C181.722 173.9 181.086 172.356 178.793 170.173C177.55 169.792 176.868 169.694 175.706 169.938M183.231 176.471L175.706 169.938M139.462 177.714L155.614 177.125L163.998 177.832L169.299 182.427C171.076 184.376 172.758 186.248 174.378 188.083M174.378 188.083C184.104 199.1 191.598 208.774 204.068 225.552C209.088 229.43 211.978 231.073 217.26 233.093H218.863C223.231 232.087 224.658 229.858 227 225.552C226.56 221.501 226.163 219.161 225.274 214.948C225.054 211.718 224.616 209.945 222.562 206.936C207.418 190.497 201.399 181.759 195.314 167.11C190.983 158.422 187.637 153.772 180.889 145.665C179.998 143.155 173.174 141.208 160.027 137.653M174.378 188.083C174.654 191.153 174.615 192.806 171.888 194.799C170.739 198.741 169.682 201.428 159.929 215.301C158.438 221.008 157.745 224.392 157.217 231.326C156.123 231.358 155.055 231.392 154.011 231.427M80.6519 193.743C80.5175 203.154 79.4306 208.496 77.6929 218.011L81.2684 219.19M81.2684 219.19L84.8439 220.368C95.0637 220.253 102.424 222.148 116.16 226.259C128.165 232.542 138.448 231.947 154.011 231.427M81.2684 219.19C81.6057 233.179 79.6674 239.498 73.7476 249L155.121 248.411C152.631 241.459 152.121 237.7 154.011 231.427" stroke="black"/>
<path d="M134.4 112.672C126.897 113.118 122.678 113.412 114.797 115.146C115.405 116.553 116.658 117.32 119.112 118.681H125.893C131.244 117.269 133.008 115.908 134.4 112.672Z" fill="#B752C0" stroke="black"/>
</svg>
