<svg width="33" height="32" viewBox="0 0 33 32" fill="none" xmlns="http://www.w3.org/2000/svg">
<path d="M12.1021 29.3346C12.8446 29.3346 13.4464 28.7377 13.4464 28.0013C13.4464 27.2649 12.8446 26.668 12.1021 26.668C11.3597 26.668 10.7578 27.2649 10.7578 28.0013C10.7578 28.7377 11.3597 29.3346 12.1021 29.3346Z" stroke="white" stroke-width="2" stroke-linecap="round" stroke-linejoin="round"/>
<path d="M26.8834 29.3346C27.6258 29.3346 28.2277 28.7377 28.2277 28.0013C28.2277 27.2649 27.6258 26.668 26.8834 26.668C26.1409 26.668 25.5391 27.2649 25.5391 28.0013C25.5391 28.7377 26.1409 29.3346 26.8834 29.3346Z" stroke="white" stroke-width="2" stroke-linecap="round" stroke-linejoin="round"/>
<path d="M1.34375 1.33203H6.72095L10.3237 19.1854C10.4466 19.7992 10.7833 20.3506 11.2748 20.7431C11.7664 21.1355 12.3814 21.344 13.0123 21.332H26.0789C26.7098 21.344 27.3248 21.1355 27.8163 20.7431C28.3079 20.3506 28.6446 19.7992 28.7675 19.1854L30.9184 7.9987H8.06526" stroke="white" stroke-width="2" stroke-linecap="round" stroke-linejoin="round"/>
</svg>
