<?xml version="1.0" encoding="UTF-8"?>
<svg version="1.1" xmlns="http://www.w3.org/2000/svg" width="512" height="512">
<path d="M0 0 C5.17405835 1.27230943 9.02700477 0.54598197 14.2265625 -0.58984375 C24.98396669 -2.55607624 35.03747766 -0.47406318 44.07421875 5.62890625 C51.93670931 11.54785982 57.65093954 19.31782814 59.8125 28.9375 C60.14037276 32.80626305 60.09931749 36.62134428 60 40.5 C59.938125 43.944375 59.87625 47.38875 59.8125 50.9375 C67.0725 50.9375 74.3325 50.9375 81.8125 50.9375 C83.68412119 66.14658801 85.42724366 81.35981062 86.95108414 96.60769081 C87.26848165 99.78250084 87.58906831 102.95697624 87.91036987 106.13139343 C88.70465301 113.98424912 89.49435447 121.83756347 90.28308105 129.690979 C90.95695316 136.40012757 91.63310793 143.10903746 92.31261826 149.81761742 C92.62788517 152.93948925 92.93973449 156.06169058 93.25149536 159.18391418 C93.44368687 161.08397219 93.63604993 162.98401285 93.82861328 164.8840332 C93.91381226 165.74674835 93.99901123 166.6094635 94.08679199 167.49832153 C94.16797272 168.29227829 94.24915344 169.08623505 94.33279419 169.9042511 C94.40171938 170.59077916 94.47064457 171.27730722 94.5416584 171.98463917 C94.82719073 174.04342517 95.16774591 175.95937384 95.8125 177.9375 C97.72990912 178.93374333 97.72990912 178.93374333 100.0625 179.4375 C105.32835869 181.0005406 108.40755928 182.95120449 111.625 187.5 C114.71120459 196.43375013 112.29055003 206.03211114 110.3815918 215.00878906 C110.12306427 216.26711548 109.86453674 217.52544189 109.59817505 218.82189941 C108.89522925 222.24110809 108.17874341 225.65734326 107.4592092 229.07309437 C106.70485391 232.66378524 105.96187264 236.2568313 105.21723938 239.84954834 C103.9663171 245.87624024 102.70670815 251.90106511 101.44165039 257.92480469 C99.98215499 264.87483198 98.53570146 271.82747465 97.09634465 278.78169847 C95.70655413 285.49526757 94.30834211 292.20705484 92.90604591 298.91802216 C92.31142442 301.76419378 91.71958051 304.61092165 91.12998009 307.45813751 C90.30586797 311.43520776 89.46937746 315.40957673 88.6315918 319.38378906 C88.38990768 320.55693665 88.14822357 321.73008423 87.8992157 322.93878174 C84.70269416 337.9683339 84.70269416 337.9683339 79.625 342.25 C79.09519531 342.72050781 78.56539063 343.19101562 78.01953125 343.67578125 C71.86401079 347.1947779 64.25527805 347.44296656 57.33499146 348.05117798 C56.30459555 348.14680853 55.27419964 348.24243909 54.21257961 348.34096754 C50.77391197 348.65857226 47.33450043 348.96721572 43.89501953 349.27587891 C41.42416033 349.50223493 38.95335156 349.72914198 36.48258972 349.95655823 C30.4782636 350.50778216 24.47343773 351.05322535 18.46834965 351.5960622 C11.47588984 352.22844898 4.48407343 352.86781452 -2.50771655 353.50755756 C-14.97799945 354.64837605 -27.44879775 355.78345659 -39.91992188 356.91503906 C-52.02602912 358.01351127 -64.13184272 359.11514168 -76.23730469 360.22070312 C-77.35705963 360.3229663 -77.35705963 360.3229663 -78.49943589 360.4272954 C-81.49990471 360.70132711 -84.50037227 360.97537262 -87.50083797 361.24943844 C-101.1227894 362.49362286 -114.7449636 363.73536529 -128.3671875 364.9765625 C-129.05964842 365.03966395 -129.75210935 365.10276541 -130.46555394 365.16777903 C-139.11053174 365.95554234 -147.75560969 366.74218831 -156.40086937 367.52685356 C-158.81244989 367.74585393 -161.2240028 367.96515857 -163.63552666 368.18478203 C-166.91423844 368.48330802 -170.19305009 368.78071097 -173.47189331 369.07778931 C-174.43723869 369.16591688 -175.40258407 369.25404445 -176.39718235 369.34484255 C-177.27056314 369.42372725 -178.14394394 369.50261195 -179.04379082 369.5838871 C-180.17986442 369.68706369 -180.17986442 369.68706369 -181.338889 369.79232466 C-183.1875 369.9375 -183.1875 369.9375 -185.1875 369.9375 C-180.27610027 382.97661432 -174.14758497 392.801941 -161.375 399.078125 C-155.41442388 401.41977991 -150.18603642 402.2286142 -143.78659058 402.1890564 C-142.96742696 402.19202654 -142.14826334 402.19499667 -141.30427659 402.19805682 C-138.57370979 402.2056637 -135.84336021 402.19921653 -133.11279297 402.19287109 C-131.14945327 402.19562245 -129.1861147 402.19930324 -127.22277832 402.20384216 C-123.00218068 402.21194136 -118.78163599 402.21412589 -114.56103134 402.21189499 C-107.88847278 402.20905936 -101.21601987 402.22342202 -94.54348755 402.24087524 C-75.57213921 402.28788215 -56.60079853 402.31185229 -37.62939453 402.31835938 C-27.14615294 402.32210682 -16.66303132 402.34010748 -6.17984116 402.37345374 C0.45482209 402.39369392 7.08917651 402.39602564 13.72385812 402.38517356 C17.84755677 402.38257051 21.97107468 402.39654996 26.09472656 402.41525459 C28.00834368 402.42058638 29.92199388 402.41906301 31.83559799 402.41021919 C34.44601865 402.39912672 37.05521246 402.41249535 39.66555786 402.43197632 C40.42440848 402.42285166 41.18325909 402.413727 41.96510518 402.40432584 C45.63389001 402.45768301 47.66415414 402.84226525 50.78237724 404.84409523 C52.8125 406.9375 52.8125 406.9375 53.44140625 408.9375 C53.32113922 412.55966004 53.22082389 414.38837477 51 417.375 C48.8125 418.9375 48.8125 418.9375 45.8125 419.9375 C46.25980469 420.39898437 46.70710938 420.86046875 47.16796875 421.3359375 C55.36425663 430.17884084 59.57826883 440.00659871 60.8125 451.9375 C58.8325 451.9375 56.8525 451.9375 54.8125 451.9375 C55.1425 452.9275 55.4725 453.9175 55.8125 454.9375 C56.81347753 465.57083507 54.70774566 475.55139041 47.8125 483.9375 C39.87393541 492.11614215 31.75316904 496.68072112 20.3125 497.25 C10.9482553 497.11044345 1.95898119 494.17516345 -5.18359375 488.05859375 C-12.9191685 479.8706462 -16.51178181 471.25942254 -16.3125 460 C-16.30347656 459.31615234 -16.29445313 458.63230469 -16.28515625 457.92773438 C-16.26188958 456.26416713 -16.22603167 454.60078369 -16.1875 452.9375 C-17.8375 452.6075 -19.4875 452.2775 -21.1875 451.9375 C-20.01679952 438.89255178 -15.43798452 429.18798452 -6.1875 419.9375 C-35.5575 419.9375 -64.9275 419.9375 -95.1875 419.9375 C-91.2275 424.8875 -91.2275 424.8875 -87.1875 429.9375 C-83.10399763 437.13735944 -80.84422333 443.52722159 -81.1875 451.9375 C-82.8375 451.9375 -84.4875 451.9375 -86.1875 451.9375 C-86.02765625 452.50210937 -85.8678125 453.06671875 -85.703125 453.6484375 C-83.56430951 463.14348204 -85.80510438 472.47448661 -90.875 480.625 C-96.81543646 488.90649517 -103.94641509 493.70947387 -113.625 496.6875 C-124.5963251 497.75787318 -134.95690764 496.38683454 -144.125 489.75 C-148.43407329 486.04973156 -151.47017175 481.90184969 -154.1875 476.9375 C-154.5278125 476.34710938 -154.868125 475.75671875 -155.21875 475.1484375 C-158.45481423 468.3467099 -157.42793043 460.27508054 -157.1875 452.9375 C-158.8375 452.6075 -160.4875 452.2775 -162.1875 451.9375 C-161.32519731 438.78738403 -156.61878284 429.11078422 -147.1875 419.9375 C-148.05890625 419.77894531 -148.9303125 419.62039063 -149.828125 419.45703125 C-166.83841069 416.12492983 -181.83824623 409.43084056 -192.1875 394.9375 C-196.57598627 387.9141234 -199.42761971 381.03495795 -201.1015625 372.95043945 C-201.26675385 372.18004239 -201.43194519 371.40964533 -201.60214233 370.6159029 C-203.8171262 360.16258225 -205.80768023 349.66311518 -207.8125 339.16796875 C-208.24538089 336.91225446 -208.6784911 334.65658416 -209.11181641 332.4009552 C-210.24361569 326.50613002 -211.37227076 320.61070721 -212.50024414 314.71514893 C-213.63881077 308.76740226 -214.78051041 302.82025713 -215.921875 296.87304688 C-220.47000926 273.16719211 -225.01789203 249.46125529 -229.48937321 225.74080181 C-230.82342457 218.66713571 -232.16750476 211.59539781 -233.51538754 204.52435493 C-234.41376205 199.80956853 -235.30820171 195.09410259 -236.1940918 190.37695312 C-237.06492328 185.74088733 -237.94603235 181.10687769 -238.83395576 176.47405624 C-239.16560082 174.73434112 -239.49373434 172.99395209 -239.817976 171.25284195 C-244.17992793 147.006494 -244.17992793 147.006494 -257.40234375 126.76171875 C-259.1875 124.9375 -259.1875 124.9375 -259.1875 122.9375 C-259.77273438 122.66550781 -260.35796875 122.39351563 -260.9609375 122.11328125 C-263.14899162 120.95783513 -264.89028698 119.67503986 -266.8125 118.125 C-274.89930419 111.98501904 -284.36165684 107.71023696 -294.5 106.5625 C-297.26120518 106.75313429 -297.26120518 106.75313429 -299.48071289 108.43667603 C-302.65008808 110.1939898 -304.58055673 110.31741238 -308.18359375 110.32568359 C-309.36832275 110.33514008 -310.55305176 110.34459656 -311.77368164 110.3543396 C-313.0446167 110.34826691 -314.31555176 110.34219421 -315.625 110.3359375 C-317.59424438 110.34024277 -317.59424438 110.34024277 -319.60327148 110.34463501 C-322.37722404 110.34904861 -325.15088602 110.34265885 -327.92480469 110.32861328 C-331.47237785 110.31152145 -335.01927003 110.32136788 -338.56681824 110.33933067 C-341.9612661 110.35280585 -345.35553282 110.34335867 -348.75 110.3359375 C-350.02093506 110.34201019 -351.29187012 110.34808289 -352.60131836 110.3543396 C-354.37841187 110.34015488 -354.37841187 110.34015488 -356.19140625 110.32568359 C-357.23111572 110.32329681 -358.2708252 110.32091003 -359.34204102 110.31845093 C-362.62710992 109.87864489 -364.51155455 108.85838309 -367.1875 106.9375 C-369.78622826 103.46465406 -369.52069448 99.718177 -369.5625 95.5 C-369.59085937 94.20191406 -369.61921875 92.90382813 -369.6484375 91.56640625 C-369.12313878 87.43079175 -368.10844847 85.84216066 -365.1875 82.9375 C-362.49082799 81.589164 -360.36778167 81.78797148 -357.34838867 81.76049805 C-355.51089302 81.74124519 -355.51089302 81.74124519 -353.63627625 81.72160339 C-352.29267785 81.71343567 -350.94907489 81.705992 -349.60546875 81.69921875 C-348.92952478 81.69514322 -348.25358082 81.6910677 -347.5571537 81.68686867 C-343.9787794 81.66600871 -340.40044343 81.65170727 -336.82202148 81.64233398 C-333.12971575 81.63127523 -329.43801364 81.59688239 -325.74592113 81.55716228 C-322.90370073 81.53098861 -320.06162391 81.52264151 -317.21929359 81.51905251 C-315.8585433 81.51418764 -314.49779937 81.50257629 -313.13716698 81.48401451 C-311.22985778 81.45961439 -309.32225483 81.46300875 -307.41479492 81.4675293 C-306.33050705 81.46166306 -305.24621918 81.45579681 -304.1290741 81.44975281 C-300.47697737 82.05531291 -298.81080939 83.3752637 -296.1875 85.9375 C-295.375 88.1875 -295.375 88.1875 -295.1875 89.9375 C-294.60484375 89.96328125 -294.0221875 89.9890625 -293.421875 90.015625 C-272.64621412 91.45293487 -256.59418649 102.75005534 -242.84765625 117.4375 C-233.67093559 128.14660972 -229.23533 140.4210365 -226.1875 153.9375 C-222.8875 154.5975 -219.5875 155.2575 -216.1875 155.9375 C-216.10709473 154.79087891 -216.02668945 153.64425781 -215.94384766 152.46289062 C-215.22998508 142.30271746 -214.50336094 132.14357378 -213.76286316 121.98530579 C-213.37620738 116.65171435 -213.01598007 111.31770388 -212.68359375 105.98046875 C-212.5394034 103.86195594 -212.39490786 101.74346386 -212.25 99.625 C-212.17483154 98.21734375 -212.17483154 98.21734375 -212.09814453 96.78125 C-211.72465463 91.65134195 -211.08608861 88.64374838 -207.1875 84.9375 C-204.17536971 83.43143485 -201.07467378 83.81589669 -197.7734375 83.83984375 C-197.04379791 83.8412587 -196.31415833 83.84267365 -195.56240845 83.84413147 C-193.22906415 83.84973469 -190.89581536 83.86228765 -188.5625 83.875 C-186.98177222 83.88001459 -185.40104293 83.88457757 -183.8203125 83.88867188 C-179.94267146 83.89970516 -176.06510193 83.91697189 -172.1875 83.9375 C-172.21106567 83.03209473 -172.21106567 83.03209473 -172.23510742 82.10839844 C-172.62721871 64.74961535 -172.30359993 49.18569529 -160.04296875 35.6328125 C-149.40945913 25.91714265 -138.53745168 23.1473265 -124.57421875 23.58984375 C-113.57273586 24.24612207 -103.89598806 29.71463346 -96.4375 37.6875 C-87.7590895 48.23851416 -85.85601193 59.15872871 -86.0625 72.4375 C-86.07152344 73.54609375 -86.08054687 74.6546875 -86.08984375 75.796875 C-86.11323716 78.51051108 -86.14910191 81.22403476 -86.1875 83.9375 C-82.2275 83.9375 -78.2675 83.9375 -74.1875 83.9375 C-74.13851563 83.06351562 -74.08953125 82.18953125 -74.0390625 81.2890625 C-73.42093211 71.1218833 -72.36411137 61.0563578 -71.1875 50.9375 C-63.2675 50.9375 -55.3475 50.9375 -47.1875 50.9375 C-47.30517172 44.43136294 -47.30517172 44.43136294 -47.45776367 37.92602539 C-47.5563494 27.00209108 -44.0260112 18.25986232 -36.6875 10.1875 C-35.8625 9.445 -35.0375 8.7025 -34.1875 7.9375 C-33.445 7.256875 -32.7025 6.57625 -31.9375 5.875 C-22.64968058 -0.66869095 -11.05774084 -3.23427993 0 0 Z M-35.5 19.375 C-40.13929247 26.41985153 -40.59372371 32.74084517 -40.375 40.9375 C-40.313125 44.2375 -40.25125 47.5375 -40.1875 50.9375 C-32.2675 50.9375 -24.3475 50.9375 -16.1875 50.9375 C-16.105 48.070625 -16.0225 45.20375 -15.9375 42.25 C-15.34515591 29.3802786 -12.81115901 19.75062922 -4.1875 9.9375 C-3.5275 8.9475 -2.8675 7.9575 -2.1875 6.9375 C-3.93360797 5.19139203 -6.24867384 5.68251617 -8.625 5.625 C-20.47143159 5.76552707 -27.61049919 11.05903968 -35.5 19.375 Z M14.8125 7.9375 C15.27140625 8.4221875 15.7303125 8.906875 16.203125 9.40625 C25.15134376 19.18161503 27.95360392 28.85625241 28.4375 41.9375 C28.56125 44.9075 28.685 47.8775 28.8125 50.9375 C36.7325 50.9375 44.6525 50.9375 52.8125 50.9375 C53.79766378 32.70916224 53.79766378 32.70916224 46.5 16.625 C39.35857364 9.48357364 32.0968509 5.83879035 21.875 5.625 C17.85181244 5.51722906 17.85181244 5.51722906 14.8125 7.9375 Z M5.8125 9.9375 C-2.30408633 16.38243208 -7.41495925 22.49045963 -9.1875 32.9375 C-9.40092482 36.11260975 -9.37929527 39.25733594 -9.3125 42.4375 C-9.27125 45.2425 -9.23 48.0475 -9.1875 50.9375 C1.0425 50.9375 11.2725 50.9375 21.8125 50.9375 C22.2403793 35.85475462 22.5130158 25.27223679 11.8125 13.71484375 C9.88582775 12.00266431 8.16841441 10.95243634 5.8125 9.9375 Z M-152.9375 38.6875 C-159.41680092 45.16680092 -163.40269707 53.01348533 -165.1875 61.9375 C-165.1875 69.1975 -165.1875 76.4575 -165.1875 83.9375 C-141.4275 83.9375 -117.6675 83.9375 -93.1875 83.9375 C-92.19025405 58.73887718 -92.19025405 58.73887718 -104.00390625 39.84375 C-107.42417939 36.85789438 -111.07872416 34.8246703 -115.1875 32.9375 C-115.991875 32.525 -116.79625 32.1125 -117.625 31.6875 C-130.72415322 27.8536015 -141.77371677 31.58327431 -152.9375 38.6875 Z " fill="#9BCEFD" transform="translate(384.1875,8.0625)"/>
<path d="M0 0 C5.17405835 1.27230943 9.02700477 0.54598197 14.2265625 -0.58984375 C24.98396669 -2.55607624 35.03747766 -0.47406318 44.07421875 5.62890625 C51.93670931 11.54785982 57.65093954 19.31782814 59.8125 28.9375 C60.14037276 32.80626305 60.09931749 36.62134428 60 40.5 C59.938125 43.944375 59.87625 47.38875 59.8125 50.9375 C67.0725 50.9375 74.3325 50.9375 81.8125 50.9375 C83.80359921 67.15695262 85.64086407 83.3832939 87.29296875 99.640625 C87.51276404 101.79011232 87.73268145 103.93958715 87.95271301 106.08905029 C88.40702147 110.53220182 88.85973941 114.9755116 89.3112793 119.41894531 C89.88969623 125.1094064 90.47247613 130.79941139 91.05642223 136.4893074 C91.50859806 140.90026693 91.95840422 145.31146563 92.4074955 149.72274017 C92.62163879 151.82316574 92.83654402 153.92351378 93.05223656 156.02378082 C93.35130188 158.93911518 93.64714492 161.85475904 93.94213867 164.77050781 C94.03093292 165.62962769 94.11972717 166.48874756 94.21121216 167.37390137 C94.59975108 171.24600346 94.92253282 175.03952946 94.8125 178.9375 C93.45845503 178.96513357 92.10423445 178.98417422 90.75 179 C89.99589844 179.01160156 89.24179687 179.02320313 88.46484375 179.03515625 C85.8125 178.9375 85.8125 178.9375 82.54519653 178.45605469 C79.1562433 177.9852536 75.8521959 177.71179536 72.43701172 177.54296875 C70.53666672 177.44363037 70.53666672 177.44363037 68.59793091 177.34228516 C67.91490025 177.30742004 67.23186958 177.27255493 66.52814102 177.2366333 C42.77149203 176.00938194 19.0520304 174.21752631 -4.67138672 172.47851562 C-10.86384243 172.02461405 -17.05662168 171.57530842 -23.24950981 171.12734985 C-28.10577054 170.77560441 -32.96186134 170.42155611 -37.81790543 170.0668335 C-40.10035499 169.90034664 -42.38285204 169.73450911 -44.66540146 169.56939697 C-56.45158915 168.71544917 -68.21985743 167.77880785 -79.98075104 166.6257019 C-87.09173018 165.93223285 -94.20563545 165.39292434 -101.3359375 164.9375 C-103.17389389 164.81568359 -103.17389389 164.81568359 -105.04898071 164.69140625 C-108.88663902 164.43724658 -112.72453186 164.18693383 -116.5625 163.9375 C-146.81253301 161.96601109 -146.81253301 161.96601109 -161.60031128 160.59631348 C-169.07838168 159.90976959 -176.55689592 159.50444087 -184.05859375 159.18359375 C-187.42623099 159.01619199 -190.73527675 158.62751166 -194.07836914 158.18041992 C-198.10111463 157.71709873 -202.14422853 157.56443131 -206.1875 157.375 C-207.05761719 157.33181641 -207.92773438 157.28863281 -208.82421875 157.24414062 C-210.94518219 157.13925782 -213.06632433 157.03799925 -215.1875 156.9375 C-216.1368736 153.06063694 -216.19737476 149.73116375 -215.90551758 145.7578125 C-215.81824905 144.53304199 -215.73098053 143.30827148 -215.6410675 142.04638672 C-215.53908554 140.7317041 -215.43710358 139.41702148 -215.33203125 138.0625 C-215.22799448 136.69157575 -215.12404793 135.32064465 -215.02018738 133.94970703 C-214.80080759 131.08127476 -214.57530362 128.21339297 -214.34643555 125.34570312 C-214.05496669 121.6784432 -213.78650197 118.0098873 -213.52359486 114.34048462 C-213.31691207 111.51014287 -213.09409746 108.68123661 -212.86685753 105.85247803 C-212.70960638 103.84536823 -212.56899555 101.83697706 -212.42866516 99.82861328 C-212.32563583 98.60384277 -212.22260651 97.37907227 -212.11645508 96.1171875 C-212.03349686 95.04194824 -211.95053864 93.96670898 -211.86506653 92.85888672 C-211.04843544 89.3379111 -209.65789983 87.53856974 -207.1875 84.9375 C-204.17536971 83.43143485 -201.07467378 83.81589669 -197.7734375 83.83984375 C-197.04379791 83.8412587 -196.31415833 83.84267365 -195.56240845 83.84413147 C-193.22906415 83.84973469 -190.89581536 83.86228765 -188.5625 83.875 C-186.98177222 83.88001459 -185.40104293 83.88457757 -183.8203125 83.88867188 C-179.94267146 83.89970516 -176.06510193 83.91697189 -172.1875 83.9375 C-172.20321045 83.33389648 -172.2189209 82.73029297 -172.23510742 82.10839844 C-172.62721871 64.74961535 -172.30359993 49.18569529 -160.04296875 35.6328125 C-149.40945913 25.91714265 -138.53745168 23.1473265 -124.57421875 23.58984375 C-113.57273586 24.24612207 -103.89598806 29.71463346 -96.4375 37.6875 C-87.7590895 48.23851416 -85.85601193 59.15872871 -86.0625 72.4375 C-86.07152344 73.54609375 -86.08054687 74.6546875 -86.08984375 75.796875 C-86.11323716 78.51051108 -86.14910191 81.22403476 -86.1875 83.9375 C-82.2275 83.9375 -78.2675 83.9375 -74.1875 83.9375 C-74.11402344 82.62652344 -74.11402344 82.62652344 -74.0390625 81.2890625 C-73.42093211 71.1218833 -72.36411137 61.0563578 -71.1875 50.9375 C-63.2675 50.9375 -55.3475 50.9375 -47.1875 50.9375 C-47.30517172 44.43136294 -47.30517172 44.43136294 -47.45776367 37.92602539 C-47.5563494 27.00209108 -44.0260112 18.25986232 -36.6875 10.1875 C-35.8625 9.445 -35.0375 8.7025 -34.1875 7.9375 C-33.445 7.256875 -32.7025 6.57625 -31.9375 5.875 C-22.64968058 -0.66869095 -11.05774084 -3.23427993 0 0 Z M-35.5 19.375 C-40.13929247 26.41985153 -40.59372371 32.74084517 -40.375 40.9375 C-40.313125 44.2375 -40.25125 47.5375 -40.1875 50.9375 C-32.2675 50.9375 -24.3475 50.9375 -16.1875 50.9375 C-16.105 48.070625 -16.0225 45.20375 -15.9375 42.25 C-15.34515591 29.3802786 -12.81115901 19.75062922 -4.1875 9.9375 C-3.5275 8.9475 -2.8675 7.9575 -2.1875 6.9375 C-3.93360797 5.19139203 -6.24867384 5.68251617 -8.625 5.625 C-20.47143159 5.76552707 -27.61049919 11.05903968 -35.5 19.375 Z M14.8125 7.9375 C15.27140625 8.4221875 15.7303125 8.906875 16.203125 9.40625 C25.15134376 19.18161503 27.95360392 28.85625241 28.4375 41.9375 C28.56125 44.9075 28.685 47.8775 28.8125 50.9375 C36.7325 50.9375 44.6525 50.9375 52.8125 50.9375 C53.79766378 32.70916224 53.79766378 32.70916224 46.5 16.625 C39.35857364 9.48357364 32.0968509 5.83879035 21.875 5.625 C17.85181244 5.51722906 17.85181244 5.51722906 14.8125 7.9375 Z M5.8125 9.9375 C-2.30408633 16.38243208 -7.41495925 22.49045963 -9.1875 32.9375 C-9.40092482 36.11260975 -9.37929527 39.25733594 -9.3125 42.4375 C-9.27125 45.2425 -9.23 48.0475 -9.1875 50.9375 C1.0425 50.9375 11.2725 50.9375 21.8125 50.9375 C22.2403793 35.85475462 22.5130158 25.27223679 11.8125 13.71484375 C9.88582775 12.00266431 8.16841441 10.95243634 5.8125 9.9375 Z M-152.9375 38.6875 C-159.41680092 45.16680092 -163.40269707 53.01348533 -165.1875 61.9375 C-165.1875 69.1975 -165.1875 76.4575 -165.1875 83.9375 C-141.4275 83.9375 -117.6675 83.9375 -93.1875 83.9375 C-92.19025405 58.73887718 -92.19025405 58.73887718 -104.00390625 39.84375 C-107.42417939 36.85789438 -111.07872416 34.8246703 -115.1875 32.9375 C-115.991875 32.525 -116.79625 32.1125 -117.625 31.6875 C-130.72415322 27.8536015 -141.77371677 31.58327431 -152.9375 38.6875 Z " fill="#FBBC18" transform="translate(384.1875,8.0625)"/>
<path d="M0 0 C1.83749565 -0.01925285 1.83749565 -0.01925285 3.71211243 -0.03889465 C5.05571082 -0.04706237 6.39931378 -0.05450604 7.74291992 -0.0612793 C8.41886389 -0.06535482 9.09480785 -0.06943035 9.79123497 -0.07362938 C13.36960927 -0.09448933 16.94794524 -0.10879078 20.52636719 -0.11816406 C24.21867292 -0.12922282 27.91037503 -0.16361566 31.60246754 -0.20333576 C34.44468794 -0.22950944 37.28676476 -0.23785654 40.12909508 -0.24144554 C41.48984538 -0.2463104 42.8505893 -0.25792176 44.21122169 -0.27648354 C46.11853089 -0.30088366 48.02613384 -0.29748929 49.93359375 -0.29296875 C51.01788162 -0.29883499 52.10216949 -0.30470123 53.21931458 -0.31074524 C56.8714113 0.29481487 58.53757928 1.61476565 61.16088867 4.17700195 C61.97338867 6.42700195 61.97338867 6.42700195 62.16088867 8.17700195 C63.03487305 8.21567383 63.03487305 8.21567383 63.92651367 8.25512695 C84.70217455 9.69243683 100.75420219 20.98955729 114.50073242 35.67700195 C123.67745309 46.38611167 128.11305867 58.66053846 131.16088867 72.17700195 C138.83523352 73.95331098 146.41405683 74.52419911 154.2578125 74.83496094 C158.48468751 75.00737006 162.602215 75.35083788 166.79882812 75.91601562 C171.78234385 76.46664904 176.79815123 76.66043385 181.80303955 76.93527222 C195.04473269 77.66857866 208.24953961 78.64862393 221.46038818 79.80480957 C237.53982165 81.20340874 253.64058243 82.21013895 269.7512207 83.17480469 C270.73096863 83.23452957 271.71071655 83.29425446 272.72015381 83.35578918 C274.55807928 83.46763448 276.39616767 83.57684671 278.23443604 83.6829071 C279.06014099 83.73332657 279.88584595 83.78374603 280.73657227 83.83569336 C281.44961517 83.87771881 282.16265808 83.91974426 282.89730835 83.96304321 C285.16088867 84.17700195 285.16088867 84.17700195 287.79844666 84.64732361 C292.31299415 85.35849068 296.82772194 85.66737563 301.38427734 85.99316406 C302.40182602 86.06812607 303.41937469 86.14308807 304.46775818 86.22032166 C307.83792519 86.46781404 311.20837417 86.71120072 314.57885742 86.9543457 C316.95267426 87.12732109 319.32647878 87.30046556 321.70027161 87.47377014 C326.69604691 87.83784914 331.6919636 88.19990651 336.68798828 88.56054688 C342.98360731 89.01514868 349.27886019 89.47460512 355.57401848 89.93553734 C390.76722778 92.51910222 390.76722778 92.51910222 425.99369812 94.58494568 C427.25583633 94.65085403 428.51797455 94.71676239 429.81835938 94.78466797 C431.42043999 94.86371117 431.42043999 94.86371117 433.05488586 94.9443512 C436.45354091 95.19892266 439.78919406 95.68622766 443.16088867 96.17700195 C444.78641517 96.17203092 446.41242379 96.13399513 448.03588867 96.05200195 C454.44267442 95.99349249 459.62782858 97.58007277 465.03588867 100.98950195 C469.92175439 106.01906961 470.4327255 110.3214994 470.35090065 117.04387665 C470.01684499 122.55215166 468.87590365 127.85970619 467.72998047 133.24829102 C467.47145294 134.50661743 467.21292542 135.76494385 466.94656372 137.06140137 C466.24361792 140.48061004 465.52713208 143.89684521 464.80759788 147.31259632 C464.05324258 150.90328719 463.31026131 154.49633326 462.56562805 158.08905029 C461.31470577 164.11574219 460.05509682 170.14056706 458.79003906 176.16430664 C457.33054366 183.11433394 455.88409013 190.0669766 454.44473332 197.02120042 C453.0549428 203.73476952 451.65673078 210.44655679 450.25443459 217.15752411 C449.65981309 220.00369574 449.06796918 222.8504236 448.47836876 225.69763947 C447.65425664 229.67470972 446.81776613 233.64907868 445.97998047 237.62329102 C445.73829636 238.7964386 445.49661224 239.96958618 445.24760437 241.17828369 C442.05108283 256.20783586 442.05108283 256.20783586 436.97338867 260.48950195 C436.44358398 260.96000977 435.9137793 261.43051758 435.36791992 261.9152832 C429.21239946 265.43427986 421.60366672 265.68246851 414.68338013 266.29067993 C413.65298422 266.38631049 412.62258831 266.48194104 411.56096828 266.58046949 C408.12230064 266.89807422 404.6828891 267.20671767 401.2434082 267.51538086 C398.77254901 267.74173688 396.30174023 267.96864394 393.83097839 268.19606018 C387.82665227 268.74728412 381.8218264 269.2927273 375.81673832 269.83556415 C368.82427851 270.46795093 361.8324621 271.10731648 354.84067212 271.74705951 C342.37038922 272.887878 329.89959092 274.02295854 317.4284668 275.15454102 C305.32235955 276.25301323 293.21654595 277.35464363 281.11108398 278.46020508 C279.99132904 278.56246826 279.99132904 278.56246826 278.84895279 278.66679735 C275.84848396 278.94082907 272.8480164 279.21487458 269.8475507 279.4889404 C256.22559927 280.73312482 242.60342507 281.97486724 228.98120117 283.21606445 C228.28874025 283.27916591 227.59627932 283.34226736 226.88283473 283.40728098 C218.23785693 284.19504429 209.59277898 284.98169027 200.9475193 285.76635551 C198.53593878 285.98535588 196.12438587 286.20466053 193.71286201 286.42428398 C190.43415023 286.72280997 187.15533858 287.02021293 183.87649536 287.31729126 C182.91114998 287.40541883 181.9458046 287.4935464 180.95120633 287.58434451 C180.07782553 287.66322921 179.20444474 287.74211391 178.30459785 287.82338905 C177.16852425 287.92656565 177.16852425 287.92656565 176.00949967 288.03182662 C174.16088867 288.17700195 174.16088867 288.17700195 172.16088867 288.17700195 C177.0722884 301.21611627 183.2008037 311.04144296 195.97338867 317.31762695 C201.9339648 319.65928186 207.16235226 320.46811616 213.5617981 320.42855835 C214.38096171 320.43152849 215.20012533 320.43449863 216.04411209 320.43755877 C218.77467888 320.44516566 221.50502846 320.43871848 224.2355957 320.43237305 C226.1989354 320.43512441 228.16227398 320.43880519 230.12561035 320.44334412 C234.34620799 320.45144331 238.56675269 320.45362784 242.78735733 320.45139694 C249.45991589 320.44856132 256.1323688 320.46292397 262.80490112 320.4803772 C281.77624946 320.52738411 300.74759014 320.55135424 319.71899414 320.55786133 C330.20223573 320.56160877 340.68535735 320.57960943 351.16854751 320.61295569 C357.80321076 320.63319587 364.43756518 320.63552759 371.07224679 320.62467551 C375.19594544 320.62207246 379.31946335 320.63605191 383.44311523 320.65475655 C385.35673235 320.66008833 387.27038255 320.65856496 389.18398666 320.64972115 C391.79440732 320.63862868 394.40360113 320.65199731 397.01394653 320.67147827 C397.77279715 320.66235361 398.53164776 320.65322896 399.31349385 320.6438278 C402.98227868 320.69718496 405.01254281 321.08176721 408.13076591 323.08359718 C410.16088867 325.17700195 410.16088867 325.17700195 410.78979492 327.17700195 C410.66952789 330.799162 410.56921256 332.62787673 408.34838867 335.61450195 C406.16088867 337.17700195 406.16088867 337.17700195 403.16088867 338.17700195 C403.60819336 338.63848633 404.05549805 339.0999707 404.51635742 339.57543945 C412.7126453 348.41834279 416.9266575 358.24610067 418.16088867 370.17700195 C416.18088867 370.17700195 414.20088867 370.17700195 412.16088867 370.17700195 C412.49088867 371.16700195 412.82088867 372.15700195 413.16088867 373.17700195 C414.1618662 383.81033702 412.05613433 393.79089236 405.16088867 402.17700195 C397.22232408 410.3556441 389.10155771 414.92022308 377.66088867 415.48950195 C368.29664398 415.3499454 359.30736987 412.41466541 352.16479492 406.2980957 C344.42922017 398.11014816 340.83660686 389.49892449 341.03588867 378.23950195 C341.04491211 377.5556543 341.05393555 376.87180664 341.06323242 376.16723633 C341.0864991 374.50366908 341.122357 372.84028564 341.16088867 371.17700195 C339.51088867 370.84700195 337.86088867 370.51700195 336.16088867 370.17700195 C337.33158915 357.13205373 341.91040416 347.42748647 351.16088867 338.17700195 C321.79088867 338.17700195 292.42088867 338.17700195 262.16088867 338.17700195 C266.12088867 343.12700195 266.12088867 343.12700195 270.16088867 348.17700195 C274.24439104 355.37686139 276.50416534 361.76672354 276.16088867 370.17700195 C274.51088867 370.17700195 272.86088867 370.17700195 271.16088867 370.17700195 C271.32073242 370.74161133 271.48057617 371.3062207 271.64526367 371.88793945 C273.78407916 381.38298399 271.54328429 390.71398856 266.47338867 398.86450195 C260.53295221 407.14599712 253.40197358 411.94897583 243.72338867 414.92700195 C232.75206357 415.99737513 222.39148103 414.62633649 213.22338867 407.98950195 C208.91431538 404.28923351 205.87821692 400.14135164 203.16088867 395.17700195 C202.82057617 394.58661133 202.48026367 393.9962207 202.12963867 393.38793945 C198.89357444 386.58621185 199.92045824 378.51458249 200.16088867 371.17700195 C198.51088867 370.84700195 196.86088867 370.51700195 195.16088867 370.17700195 C196.02319136 357.02688598 200.72960583 347.35028617 210.16088867 338.17700195 C209.28948242 338.01844727 208.41807617 337.85989258 207.52026367 337.6965332 C190.50997798 334.36443179 175.51014245 327.67034251 165.16088867 313.17700195 C160.7724024 306.15362535 157.92076897 299.2744599 156.24682617 291.18994141 C156.08163483 290.41954434 155.91644348 289.64914728 155.74624634 288.85540485 C153.53126247 278.40208421 151.54070844 267.90261713 149.53588867 257.4074707 C149.10300778 255.15175641 148.66989757 252.89608612 148.23657227 250.64045715 C147.10477298 244.74563197 145.97611792 238.85020917 144.84814453 232.95465088 C143.70957791 227.00690421 142.56787826 221.05975908 141.42651367 215.11254883 C136.87837941 191.40669407 132.33049664 167.70075724 127.85901546 143.98030376 C126.5249641 136.90663767 125.18088391 129.83489977 123.83300114 122.76385689 C122.93462662 118.04907049 122.04018696 113.33360454 121.15429688 108.61645508 C120.28346539 103.98038928 119.40235632 99.34637965 118.51443291 94.7135582 C118.18278786 92.97384307 117.85465433 91.23345404 117.53041267 89.4923439 C113.16846074 65.24599595 113.16846074 65.24599595 99.94604492 45.0012207 C98.16088867 43.17700195 98.16088867 43.17700195 98.16088867 41.17700195 C97.5756543 40.90500977 96.99041992 40.63301758 96.38745117 40.3527832 C94.19939705 39.19733708 92.45810169 37.91454181 90.53588867 36.36450195 C82.44908448 30.224521 72.98673184 25.94973892 62.84838867 24.80200195 C60.08718349 24.99263624 60.08718349 24.99263624 57.86767578 26.67617798 C54.69830059 28.43349175 52.76783194 28.55691434 49.16479492 28.56518555 C47.38770142 28.57937027 47.38770142 28.57937027 45.57470703 28.59384155 C44.30377197 28.58776886 43.03283691 28.58169617 41.72338867 28.57543945 C40.41055908 28.57830963 39.09772949 28.58117981 37.74511719 28.58413696 C34.97116463 28.58855056 32.19750266 28.5821608 29.42358398 28.56811523 C25.87601083 28.5510234 22.32911864 28.56086983 18.78157043 28.57883263 C15.38712257 28.5923078 11.99285585 28.58286062 8.59838867 28.57543945 C7.32745361 28.58151215 6.05651855 28.58758484 4.74707031 28.59384155 C3.56234131 28.58438507 2.3776123 28.57492859 1.15698242 28.56518555 C0.11727295 28.56279877 -0.92243652 28.56041199 -1.99365234 28.55795288 C-5.27872125 28.11814684 -7.16316588 27.09788504 -9.83911133 25.17700195 C-12.43783959 21.70415601 -12.17230581 17.95767896 -12.21411133 13.73950195 C-12.2424707 12.44141602 -12.27083008 11.14333008 -12.30004883 9.8059082 C-11.77475011 5.6702937 -10.7600598 4.08166261 -7.83911133 1.17700195 C-5.14243932 -0.17133405 -3.019393 0.02747343 0 0 Z M133.16088867 89.17700195 C134.90367466 99.91405881 136.75821172 110.61491173 138.86376953 121.28729248 C139.30701287 123.53407988 139.74692686 125.7815014 140.1862793 128.02905273 C141.53492803 134.92229221 142.89230515 141.81381168 144.24975586 148.70532227 C145.38853621 154.48720821 146.52545579 160.26945772 147.66088867 166.05200195 C147.85207275 167.02517365 148.04325684 167.99834534 148.24023438 169.00100708 C150.99609049 183.04398859 153.64598243 197.10283769 156.20761108 211.18243408 C159.09845099 227.05477749 162.2427687 242.87226631 165.45239258 258.68286133 C166.36409099 263.17914928 167.26387225 267.67776706 168.16088867 272.17700195 C177.08824326 272.30049633 185.84006556 272.01920191 194.72338867 271.14575195 C195.91149643 271.03440414 197.09960419 270.92305634 198.32371521 270.80833435 C201.58400698 270.50167719 204.84369354 270.1893226 208.10322189 269.87467575 C211.6272479 269.53613328 215.15203131 269.20566713 218.67675781 268.87451172 C224.84773087 268.29393849 231.01832617 267.70949073 237.1887207 267.12280273 C254.06636299 265.51895761 270.9469304 263.94619457 287.82744217 262.37289047 C290.60022896 262.11433035 293.37297932 261.85538269 296.14572144 261.59634399 C320.51941656 259.32005576 344.89787881 257.13013371 369.29016113 255.06210327 C398.28811414 252.69595498 398.28811414 252.69595498 427.16088867 249.17700195 C430.36131358 238.0091008 432.7498365 226.76076744 434.96508789 215.36181641 C435.94290228 210.33431135 436.93788605 205.31021894 437.93432617 200.28637695 C438.12903503 199.30411133 438.3237439 198.3218457 438.52435303 197.30981445 C439.96581968 190.07315748 441.51325449 182.86977332 443.16088867 175.67700195 C445.75010232 164.28521048 448.13743742 152.85404572 450.46533203 141.40625 C450.88478978 139.34940263 451.30760051 137.29323598 451.73388672 135.23779297 C452.33239899 132.34698576 452.91817094 129.45387256 453.50073242 126.55981445 C453.77517433 125.25072617 453.77517433 125.25072617 454.05516052 123.91519165 C455.21991632 118.03320289 455.21991632 118.03320289 454.16088867 112.17700195 C451.95265243 109.96876571 446.87908305 110.59447371 443.79980469 110.37670898 C442.81373734 110.30335327 441.82766998 110.22999756 440.8117218 110.15441895 C437.51305397 109.9101524 434.21394426 109.67248217 430.91479492 109.43481445 C428.59542533 109.26445706 426.27608473 109.09370456 423.95677185 108.9225769 C417.79669117 108.46919348 411.63621482 108.0214152 405.47564697 107.57470703 C399.38154076 107.1318021 393.28783763 106.68342657 387.1940918 106.2355957 C375.39292342 105.36933228 363.59117247 104.51128009 351.78912354 103.65710449 C346.48354295 103.27309596 341.17811639 102.88700994 335.87273884 102.5002079 C332.06805805 102.22322405 328.26325817 101.94790601 324.45841789 101.67312241 C322.74044335 101.54879202 321.02251084 101.42387892 319.30462837 101.29828262 C309.76393478 100.60141199 300.22677722 99.9814429 290.66966915 99.55393791 C285.78758255 99.32069312 281.00565928 98.82588968 276.16088867 98.17700195 C274.24697046 98.00510828 272.33152905 97.84912766 270.41479492 97.7121582 C269.3480957 97.63553955 268.28139648 97.5589209 267.18237305 97.47998047 C265.47017578 97.3609436 265.47017578 97.3609436 263.72338867 97.23950195 C261.89324219 97.10983032 261.89324219 97.10983032 260.02612305 96.97753906 C252.09785095 96.4246253 244.16761602 95.93488511 236.23339844 95.47558594 C223.06726286 94.7132015 209.92680134 93.79626775 196.78588867 92.67700195 C196.02994415 92.61283081 195.27399963 92.54865967 194.49514771 92.48254395 C191.50617673 92.22870931 188.51726205 91.97422094 185.52839661 91.71914673 C168.03721698 90.22676345 150.72403733 88.86872923 133.16088867 89.17700195 Z " fill="#1C6BE3" transform="translate(26.839111328125,89.822998046875)"/>
<path d="M0 0 C8.60475693 7.04025567 14.32120651 16.65141851 16.0625 27.6875 C16.28832563 31.85875665 16.25243334 36.01178674 16.1875 40.1875 C16.17847656 41.29609375 16.16945313 42.4046875 16.16015625 43.546875 C16.13676167 46.26064592 16.10398175 48.97395545 16.0625 51.6875 C16.79605713 51.68532471 17.52961426 51.68314941 18.28540039 51.6809082 C25.35934106 51.66906472 32.42843684 51.68307866 39.5 51.875 C40.45326172 51.88080078 41.40652344 51.88660156 42.38867188 51.89257812 C43.31099609 51.92158203 44.23332031 51.95058594 45.18359375 51.98046875 C46.0027124 51.9961792 46.82183105 52.01188965 47.66577148 52.02807617 C51.37550554 53.04875374 52.77747262 54.60629069 55.0625 57.6875 C55.91683056 60.88317548 56.07738733 64.04862656 56.2421875 67.34375 C56.30945038 68.30398071 56.37671326 69.26421143 56.4460144 70.25354004 C56.59072811 72.32225196 56.72654497 74.39160168 56.85437012 76.46142578 C57.13426674 80.79990556 57.49653232 85.13003206 57.85748291 89.46240234 C58.22641709 93.90956818 58.57416019 98.35829951 58.92236328 102.80712891 C59.19162785 106.24012824 59.46489111 109.67279577 59.73828125 113.10546875 C59.91169827 115.30987697 60.08488425 117.51430338 60.2578125 119.71875 C60.33903351 120.73432983 60.42025452 121.74990967 60.50393677 122.79626465 C60.86395224 127.43948431 61.16379998 132.02573404 61.0625 136.6875 C57.3329256 136.57331515 53.60400506 136.4438801 49.875 136.3125 C48.85857422 136.2815625 47.84214844 136.250625 46.79492188 136.21875 C40.01009596 135.97127915 33.28741688 135.45081377 26.53515625 134.7734375 C12.94266234 133.4158175 -0.68262401 132.57332083 -14.3125 131.6875 C-44.56253301 129.71601109 -44.56253301 129.71601109 -59.35031128 128.34631348 C-66.82838168 127.65976959 -74.30689592 127.25444087 -81.80859375 126.93359375 C-85.17623099 126.76619199 -88.48527675 126.37751166 -91.82836914 125.93041992 C-95.85111463 125.46709873 -99.89422853 125.31443131 -103.9375 125.125 C-104.80761719 125.08181641 -105.67773438 125.03863281 -106.57421875 124.99414062 C-108.69518219 124.88925782 -110.81632433 124.78799925 -112.9375 124.6875 C-113.8868736 120.81063694 -113.94737476 117.48116375 -113.65551758 113.5078125 C-113.52461479 111.67065674 -113.52461479 111.67065674 -113.3910675 109.79638672 C-113.28908554 108.4817041 -113.18710358 107.16702148 -113.08203125 105.8125 C-112.97799448 104.44157575 -112.87404793 103.07064465 -112.77018738 101.69970703 C-112.55080759 98.83127476 -112.32530362 95.96339297 -112.09643555 93.09570312 C-111.80496669 89.4284432 -111.53650197 85.7598873 -111.27359486 82.09048462 C-111.06691207 79.26014287 -110.84409746 76.43123661 -110.61685753 73.60247803 C-110.45960638 71.59536823 -110.31899555 69.58697706 -110.17866516 67.57861328 C-110.07563583 66.35384277 -109.97260651 65.12907227 -109.86645508 63.8671875 C-109.78349686 62.79194824 -109.70053864 61.71670898 -109.61506653 60.60888672 C-108.79843544 57.0879111 -107.40789983 55.28856974 -104.9375 52.6875 C-101.92536971 51.18143485 -98.82467378 51.56589669 -95.5234375 51.58984375 C-94.79379791 51.5912587 -94.06415833 51.59267365 -93.31240845 51.59413147 C-90.97906415 51.59973469 -88.64581536 51.61228765 -86.3125 51.625 C-84.73177222 51.63001459 -83.15104293 51.63457757 -81.5703125 51.63867188 C-77.69267146 51.64970516 -73.81510193 51.66697189 -69.9375 51.6875 C-69.95321045 51.08389648 -69.9689209 50.48029297 -69.98510742 49.85839844 C-70.37721871 32.49961535 -70.05359993 16.93569529 -57.79296875 3.3828125 C-41.35902601 -11.6326215 -18.06809445 -12.90578175 0 0 Z M-50.6875 6.4375 C-57.16680092 12.91680092 -61.15269707 20.76348533 -62.9375 29.6875 C-62.9375 36.9475 -62.9375 44.2075 -62.9375 51.6875 C-39.1775 51.6875 -15.4175 51.6875 9.0625 51.6875 C10.05974595 26.48887718 10.05974595 26.48887718 -1.75390625 7.59375 C-5.17417939 4.60789438 -8.82872416 2.5746703 -12.9375 0.6875 C-13.741875 0.275 -14.54625 -0.1375 -15.375 -0.5625 C-28.47415322 -4.3963985 -39.52371677 -0.66672569 -50.6875 6.4375 Z " fill="#6AB73E" transform="translate(281.9375,40.3125)"/>
<path d="M0 0 C8.03715645 6.1855931 13.15481636 15.97975727 15.2890625 25.76171875 C15.36309928 28.09387719 15.38422136 30.43032663 15.2890625 32.76171875 C13.6390625 32.76171875 11.9890625 32.76171875 10.2890625 32.76171875 C10.44890625 33.32632813 10.60875 33.8909375 10.7734375 34.47265625 C12.91225299 43.96770079 10.67145812 53.29870536 5.6015625 61.44921875 C-0.33887396 69.73071392 -7.46985259 74.53369262 -17.1484375 77.51171875 C-28.1197626 78.58209193 -38.48034514 77.21105329 -47.6484375 70.57421875 C-51.95751079 66.87395031 -54.99360925 62.72606844 -57.7109375 57.76171875 C-58.22140625 56.87613281 -58.22140625 56.87613281 -58.7421875 55.97265625 C-61.97825173 49.17092865 -60.95136793 41.09929929 -60.7109375 33.76171875 C-62.3609375 33.43171875 -64.0109375 33.10171875 -65.7109375 32.76171875 C-64.85198734 19.66272883 -60.26612953 10.31691078 -51.0234375 1.07421875 C-34.79653107 -11.54670847 -16.89528514 -10.64671143 0 0 Z " fill="#9BCEFD" transform="translate(287.7109375,427.23828125)"/>
<path d="M0 0 C9.87860512 5.67079307 14.43763563 14.12533907 18.5625 24.4375 C19.50781797 28.06121888 19.92715599 31.58750795 20.3125 35.3125 C18.3325 35.3125 16.3525 35.3125 14.3125 35.3125 C14.6425 36.3025 14.9725 37.2925 15.3125 38.3125 C16.31347753 48.94583507 14.20774566 58.92639041 7.3125 67.3125 C-0.62606459 75.49114215 -8.74683096 80.05572112 -20.1875 80.625 C-29.5517447 80.48544345 -38.54101881 77.55016345 -45.68359375 71.43359375 C-53.4191685 63.2456462 -57.01178181 54.63442254 -56.8125 43.375 C-56.80347656 42.69115234 -56.79445313 42.00730469 -56.78515625 41.30273438 C-56.76188958 39.63916713 -56.72603167 37.97578369 -56.6875 36.3125 C-58.3375 35.9825 -59.9875 35.6525 -61.6875 35.3125 C-60.66254988 23.89162724 -56.57968626 11.63936894 -47.7734375 3.76953125 C-32.16596526 -7.13231734 -16.88104468 -8.44052234 0 0 Z " fill="#9BCEFD" transform="translate(424.6875,424.6875)"/>
<path d="M0 0 C6.93 0 13.86 0 21 0 C22.99109921 16.21945262 24.82836407 32.4457939 26.48046875 48.703125 C26.70026404 50.85261232 26.92018145 53.00208715 27.14021301 55.15155029 C27.59452147 59.59470182 28.04723941 64.0380116 28.4987793 68.48144531 C29.07719623 74.1719064 29.65997613 79.86191139 30.24392223 85.5518074 C30.69609806 89.96276693 31.14590422 94.37396563 31.5949955 98.78524017 C31.80913879 100.88566574 32.02404402 102.98601378 32.23973656 105.08628082 C32.53880188 108.00161518 32.83464492 110.91725904 33.12963867 113.83300781 C33.21843292 114.69212769 33.30722717 115.55124756 33.39871216 116.43640137 C33.78725108 120.30850346 34.11003282 124.10202946 34 128 C32.64595503 128.02763357 31.29173445 128.04667422 29.9375 128.0625 C29.18339844 128.07410156 28.42929687 128.08570313 27.65234375 128.09765625 C25 128 25 128 21.85546875 127.52734375 C17.78322155 126.97034945 13.76112499 126.68177485 9.66015625 126.46484375 C8.89319931 126.42186661 8.12624237 126.37888947 7.33604431 126.33460999 C4.91167667 126.19940496 2.48710438 126.0683838 0.0625 125.9375 C-1.59181226 125.84598072 -3.24610933 125.75418652 -4.90039062 125.66210938 C-8.9334252 125.43822817 -12.96664862 125.21809621 -17 125 C-15.02 124.505 -15.02 124.505 -13 124 C-12.95939957 123.13721436 -12.91879913 122.27442871 -12.87696838 121.38549805 C-12.17626394 108.47181453 -10.72795595 95.6602325 -9.27734375 82.8125 C-9.00939214 80.41401884 -8.74178427 78.01549926 -8.47450256 75.61694336 C-7.77594864 69.356466 -7.07277888 63.09651576 -6.36859131 56.83666992 C-5.64849545 50.42788813 -4.93284255 44.01861034 -4.21679688 37.609375 C-2.81550453 25.07243095 -1.40891605 12.53608958 0 0 Z " fill="#FE551A" transform="translate(445,59)"/>
<path d="M0 0 C5.17405835 1.27230943 9.02700477 0.54598197 14.2265625 -0.58984375 C24.98396669 -2.55607624 35.03747766 -0.47406318 44.07421875 5.62890625 C51.92442105 11.5386091 57.67747326 19.32089388 59.8125 28.9375 C60.14314459 32.97013434 60.09946758 36.95753555 60 41 C59.97969727 42.58458008 59.97969727 42.58458008 59.95898438 44.20117188 C59.9239709 46.78049809 59.87486675 49.35871494 59.8125 51.9375 C57.81295254 51.98004356 55.81208364 51.97830783 53.8125 51.9375 C52.24218874 50.36718874 52.66681319 48.77679708 52.63671875 46.59765625 C52.47960927 29.34247181 52.47960927 29.34247181 43.8125 14.9375 C35.68532428 7.85281541 27.37391972 6.40449377 16.8125 6.9375 C16.8125 9.61436371 17.75208203 10.13556998 19.5625 12.0625 C26.77031072 20.27328438 29.18606311 29.68654078 29 40.4375 C28.99355469 41.23196533 28.98710937 42.02643066 28.98046875 42.8449707 C28.84927102 53.54886038 28.3285896 64.2464843 27.8125 74.9375 C25.875 75.5 25.875 75.5 23.8125 75.9375 C21.65252813 73.77752813 22.50488724 68.82764854 22.41796875 65.8203125 C22.34909369 63.91403392 22.2794049 62.00778461 22.20898438 60.1015625 C22.10233475 57.0958491 22.00080538 54.09033477 21.91381836 51.08398438 C21.45269333 31.23264013 21.45269333 31.23264013 11.59375 14.49609375 C9.76338207 12.89452181 8.03022952 11.91505183 5.8125 10.9375 C-2.03575394 16.90850588 -6.41559552 23.11100281 -8.1875 32.9375 C-8.5311497 36.26805231 -8.68917486 39.59230569 -8.8125 42.9375 C-8.85117187 43.80761719 -8.88984375 44.67773438 -8.9296875 45.57421875 C-9.02290887 47.69500486 -9.10624136 49.81622185 -9.1875 51.9375 C-11.18704746 51.98004356 -13.18791636 51.97830783 -15.1875 51.9375 C-17.57863402 49.54636598 -16.49937413 42.93061474 -16.50219727 39.57861328 C-16.31267602 27.5546677 -13.11601442 18.95960262 -5.1875 9.9375 C-4.5275 8.9475 -3.8675 7.9575 -3.1875 6.9375 C-13.56529395 6.2955746 -21.38183214 7.54849349 -29.5625 14.25 C-33.02695249 17.51189378 -35.12677847 20.6575399 -37.1875 24.9375 C-37.53796387 25.61901123 -37.88842773 26.30052246 -38.24951172 27.00268555 C-39.6483281 31.379357 -39.66092424 35.69882445 -39.8203125 40.26953125 C-39.86187469 41.26127853 -39.90343689 42.25302582 -39.94625854 43.27482605 C-40.07669258 46.43294413 -40.19475782 49.59138578 -40.3125 52.75 C-40.39892361 54.89521532 -40.48615389 57.0403983 -40.57421875 59.18554688 C-40.78799709 64.43585907 -40.99163073 69.68649083 -41.1875 74.9375 C-42.84364657 75.31968767 -44.51207024 75.65145102 -46.1875 75.9375 C-47.72515222 74.39984778 -47.3296378 72.97817141 -47.34863281 70.8359375 C-47.35824036 69.96412842 -47.3678479 69.09231934 -47.37774658 68.1940918 C-47.38199646 67.2431665 -47.38624634 66.29224121 -47.390625 65.3125 C-47.39632507 64.33643799 -47.40202515 63.36037598 -47.40789795 62.35473633 C-47.41736936 60.279959 -47.42389038 58.20516648 -47.42773438 56.13037109 C-47.4373744 52.97856601 -47.46834998 49.82743125 -47.5 46.67578125 C-47.50653647 44.65885803 -47.51178441 42.64193015 -47.515625 40.625 C-47.5279718 39.69026855 -47.5403186 38.75553711 -47.55303955 37.79248047 C-47.5168565 26.9773909 -43.95552095 18.18232305 -36.6875 10.1875 C-35.8625 9.445 -35.0375 8.7025 -34.1875 7.9375 C-33.445 7.256875 -32.7025 6.57625 -31.9375 5.875 C-22.64968058 -0.66869095 -11.05774084 -3.23427993 0 0 Z " fill="#270636" transform="translate(384.1875,8.0625)"/>
<path d="M0 0 C1.83749565 -0.01925285 1.83749565 -0.01925285 3.71211243 -0.03889465 C5.05571082 -0.04706237 6.39931378 -0.05450604 7.74291992 -0.0612793 C8.41886389 -0.06535482 9.09480785 -0.06943035 9.79123497 -0.07362938 C13.36960927 -0.09448933 16.94794524 -0.10879078 20.52636719 -0.11816406 C24.21867292 -0.12922282 27.91037503 -0.16361566 31.60246754 -0.20333576 C34.44468794 -0.22950944 37.28676476 -0.23785654 40.12909508 -0.24144554 C41.48984538 -0.2463104 42.8505893 -0.25792176 44.21122169 -0.27648354 C46.11853089 -0.30088366 48.02613384 -0.29748929 49.93359375 -0.29296875 C51.01788162 -0.29883499 52.10216949 -0.30470123 53.21931458 -0.31074524 C56.86654226 0.29400752 58.52626077 1.63652802 61.16088867 4.17700195 C62.62432323 7.10387107 62.33133127 9.73153809 62.34838867 12.98950195 C62.36256836 14.21282227 62.37674805 15.43614258 62.39135742 16.6965332 C62.1652088 20.11176063 61.87352549 22.23003229 60.16088867 25.17700195 C56.41769348 27.91777005 53.76643403 28.55462192 49.16479492 28.56518555 C47.38770142 28.57937027 47.38770142 28.57937027 45.57470703 28.59384155 C44.30377197 28.58776886 43.03283691 28.58169617 41.72338867 28.57543945 C40.41055908 28.57830963 39.09772949 28.58117981 37.74511719 28.58413696 C34.97116463 28.58855056 32.19750266 28.5821608 29.42358398 28.56811523 C25.87601083 28.5510234 22.32911864 28.56086983 18.78157043 28.57883263 C15.38712257 28.5923078 11.99285585 28.58286062 8.59838867 28.57543945 C7.32745361 28.58151215 6.05651855 28.58758484 4.74707031 28.59384155 C3.56234131 28.58438507 2.3776123 28.57492859 1.15698242 28.56518555 C0.11727295 28.56279877 -0.92243652 28.56041199 -1.99365234 28.55795288 C-5.27872125 28.11814684 -7.16316588 27.09788504 -9.83911133 25.17700195 C-12.43783959 21.70415601 -12.17230581 17.95767896 -12.21411133 13.73950195 C-12.2424707 12.44141602 -12.27083008 11.14333008 -12.30004883 9.8059082 C-11.77475011 5.6702937 -10.7600598 4.08166261 -7.83911133 1.17700195 C-5.14243932 -0.17133405 -3.019393 0.02747343 0 0 Z " fill="#9BCEFD" transform="translate(26.839111328125,89.822998046875)"/>
<path d="M0 0 C3.9540544 1.15027037 4.49146106 1.4924382 6.4375 5 C7.26713573 8.06423812 7.74737103 11.16621118 8.234375 14.30078125 C8.46592285 15.69879219 8.46592285 15.69879219 8.70214844 17.12504578 C9.03402487 19.13618583 9.36078635 21.14817524 9.6829834 23.16088867 C10.36451703 27.41828893 11.07004997 31.6715999 11.7744751 35.92526245 C12.13456562 38.10077704 12.49340208 40.27649956 12.85101318 42.4524231 C14.53081632 52.65325107 16.34168718 62.82811982 18.1875 73 C18.47784086 74.60835866 18.76796448 76.21675656 19.05786133 77.82519531 C20.07816986 83.48435059 21.10093668 89.14305777 22.12646484 94.80126953 C22.71432236 98.05414139 23.29575256 101.30808592 23.875 104.5625 C24.0390332 105.46033203 24.20306641 106.35816406 24.37207031 107.28320312 C25.12617884 111.55142366 25.82389915 115.65137232 25.4375 120 C23.3125 122.9375 23.3125 122.9375 20.4375 125 C17.3125 125.0625 17.3125 125.0625 14.4375 124 C11.79437249 121.12535913 10.93861386 118.75187496 10.3059082 114.93579102 C10.13147186 113.9185495 9.95703552 112.90130798 9.77731323 111.85324097 C9.59943268 110.74796051 9.42155212 109.64268005 9.23828125 108.50390625 C8.94390671 106.76284103 8.94390671 106.76284103 8.64358521 104.98660278 C8.00209249 101.18021495 7.37603051 97.37145861 6.75 93.5625 C6.31054864 90.93639064 5.87019006 88.31045792 5.42797852 85.68481445 C5.20468997 84.35856741 4.98140813 83.03231924 4.75813293 81.70606995 C4.64727671 81.0477524 4.53642048 80.38943485 4.42220497 79.71116829 C4.08479699 77.70415339 3.74892912 75.69688568 3.41337585 73.68955994 C2.01154589 65.31641521 0.55455848 56.95488399 -0.9609375 48.6015625 C-1.14656754 47.57592697 -1.33219757 46.55029144 -1.52345276 45.49357605 C-2.22395951 41.62970182 -2.92577863 37.76611996 -3.63900757 33.90457153 C-8.17523998 9.32148577 -8.17523998 9.32148577 -7.5625 4 C-5.00973194 0.62779023 -4.3310137 0 0 0 Z " fill="#1F6DE4" transform="translate(211.5625,208)"/>
<path d="M0 0 C1.48831242 0.00667405 2.97660807 0.01863442 4.46484375 0.03515625 C5.22345703 0.03966797 5.98207031 0.04417969 6.76367188 0.04882812 C8.64326246 0.06064945 10.52281274 0.07858547 12.40234375 0.09765625 C12.33273438 1.474375 12.33273438 1.474375 12.26171875 2.87890625 C11.84708783 13.19738163 11.84708783 13.19738163 16.40234375 22.09765625 C21.49845214 26.70731793 26.13032695 28.47541747 32.9921875 28.375 C38.41154933 27.75137814 42.69185578 25.21741895 46.27734375 21.16015625 C50.25026264 15.43447903 50.9297356 10.95375032 50.40234375 4.09765625 C49.90734375 2.11765625 49.90734375 2.11765625 49.40234375 0.09765625 C55.01234375 0.09765625 60.62234375 0.09765625 66.40234375 0.09765625 C68.70765114 9.31888582 67.57760154 18.06367727 63.1484375 26.48046875 C57.24515835 35.97075403 49.57601764 41.58267967 38.96484375 44.84765625 C27.99351865 45.91802943 17.63293611 44.54699079 8.46484375 37.91015625 C4.15577046 34.20988781 1.119672 30.06200594 -1.59765625 25.09765625 C-1.93796875 24.50726563 -2.27828125 23.916875 -2.62890625 23.30859375 C-5.83304036 16.57397854 -5.04303253 8.36928058 -4.59765625 1.09765625 C-3.59765625 0.09765625 -3.59765625 0.09765625 0 0 Z " fill="#1C6BE4" transform="translate(231.59765625,459.90234375)"/>
<path d="M0 0 C1.48831242 0.00667405 2.97660807 0.01863442 4.46484375 0.03515625 C5.22345703 0.03966797 5.98207031 0.04417969 6.76367188 0.04882812 C8.64326246 0.06064945 10.52281274 0.07858547 12.40234375 0.09765625 C12.33273437 1.07605469 12.263125 2.05445313 12.19140625 3.0625 C11.88671582 10.44036114 11.72397208 16.34010476 16.5703125 22.35546875 C20.81950144 26.39627529 25.0401826 28.26469357 30.90234375 28.59765625 C36.39175905 28.31372098 40.90274577 26.41327366 44.94140625 22.671875 C49.59522825 17.405708 50.62924544 13.08211108 50.5703125 6.28125 C50.43816643 3.76660531 50.43816643 3.76660531 49.40234375 0.09765625 C55.01234375 0.09765625 60.62234375 0.09765625 66.40234375 0.09765625 C69.36821237 8.9952621 67.26466116 17.8481769 63.40234375 26.09765625 C58.7559376 34.8742012 50.68670312 40.92962041 41.40234375 44.09765625 C31.99347783 46.99269192 22.24280202 44.82462486 13.40234375 41.09765625 C4.98378742 36.41077466 -0.60107456 28.77006382 -3.77734375 19.74609375 C-4.66611828 15.79316324 -4.8292361 12.26998758 -4.78515625 8.22265625 C-4.77871094 6.90523438 -4.77226562 5.5878125 -4.765625 4.23046875 C-4.54541964 0.12338273 -4.54541964 0.12338273 0 0 Z " fill="#1C6BE4" transform="translate(372.59765625,459.90234375)"/>
<path d="M0 0 C4.82495922 4.29699159 5.18762159 9.64183981 6.11328125 15.7109375 C6.28860886 16.77570313 6.46393646 17.84046875 6.64457703 18.9375 C7.21439338 22.4145738 7.76327641 25.89461987 8.3125 29.375 C8.8983243 32.97818791 9.48951816 36.58047064 10.08078003 40.18276978 C10.4782124 42.60725602 10.87381515 45.03204287 11.26760864 47.4571228 C13.05594953 58.45251082 14.99978774 69.41645166 17 80.375 C17.43234269 82.74646739 17.86439893 85.11798365 18.29512024 87.48974609 C18.65729116 89.48224248 19.02189441 91.47429634 19.38671875 93.46630859 C20.29801874 98.7171669 21.14933331 103.9146656 21.25 109.25 C21.27578125 110.08015625 21.3015625 110.9103125 21.328125 111.765625 C21 114 21 114 19.703125 115.7734375 C16.86990847 117.81387326 14.36085808 117.36009194 11 117 C8.49871054 115.28823626 8.01522826 114.05441159 7.19140625 111.11083984 C6.98386719 109.90637207 6.77632813 108.7019043 6.5625 107.4609375 C6.44113174 106.77581085 6.31976349 106.0906842 6.19471741 105.38479614 C5.78456827 103.05010105 5.39219159 100.71277407 5 98.375 C4.71106719 96.70232481 4.42124253 95.02980348 4.13061523 93.35742188 C3.46592146 89.51527799 2.81032377 85.67169386 2.15966797 81.82714844 C1.19561695 76.13631838 0.21589686 70.44826738 -0.76786232 64.76082039 C-2.03871218 57.4118512 -3.2995784 50.06118763 -4.55841064 42.71015167 C-4.93705725 40.50258131 -5.31734973 38.29529974 -5.69799805 36.08807373 C-6.30476461 32.56686101 -6.90538278 29.04464878 -7.50158882 25.52163315 C-7.83109979 23.58270183 -8.16631948 21.64474339 -8.50169373 19.70681763 C-11.00425627 4.83129085 -11.00425627 4.83129085 -8.9375 1.0625 C-5.79665674 -0.65989792 -3.50181214 -0.49148241 0 0 Z " fill="#1E6DE4" transform="translate(301,212)"/>
<path d="M0 0 C4.55012406 4.17371862 5.04017489 8.79538103 5.89453125 14.6171875 C6.12409264 16.04711784 6.12409264 16.04711784 6.35829163 17.50593567 C6.8567892 20.62695094 7.33436033 23.75080748 7.8125 26.875 C8.32867767 30.13296735 8.85059143 33.38998167 9.37298584 36.6469574 C9.72709361 38.85596641 10.07949936 41.06524889 10.43023682 43.27479553 C12.23004877 54.57621825 14.25453974 65.83318363 16.31460571 77.08953857 C21.63204358 106.16265959 21.63204358 106.16265959 21 114 C19.69921875 115.71875 19.69921875 115.71875 18 117 C11.94288488 117.64897662 11.94288488 117.64897662 9.37402344 115.88085938 C7.42499388 113.21289141 7.10441729 110.77713352 6.515625 107.53125 C6.3939093 106.87419067 6.2721936 106.21713135 6.14678955 105.54016113 C5.74927041 103.36251365 5.37221418 101.1821086 5 99 C4.87214111 98.2579834 4.74428223 97.5159668 4.61254883 96.75146484 C3.77870977 91.88558533 2.97555861 87.01495066 2.18121338 82.14248657 C-0.64093258 64.84830421 -3.63761498 47.59060248 -6.77832031 30.3515625 C-6.9201474 29.57117111 -7.06197449 28.79077972 -7.20809937 27.98674011 C-7.47014148 26.54648587 -7.73339584 25.10645134 -7.99819946 23.66670227 C-11.31293153 5.47140052 -11.31293153 5.47140052 -8.9375 1 C-5.78136563 -0.62897258 -3.47848951 -0.48820905 0 0 Z " fill="#1E6DE4" transform="translate(258,212)"/>
<path d="M0 0 C3.83127989 2.99959442 4.6577566 5.48286917 5.421875 10.2109375 C5.6386792 11.49629395 5.8554834 12.78165039 6.07885742 14.10595703 C6.30267358 15.52895532 6.52638446 16.95197017 6.75 18.375 C6.99609033 19.86210079 7.24393887 21.34891154 7.4934082 22.83544922 C8.03902462 26.09559835 8.57664868 29.35694117 9.10986328 32.61914062 C10.56290226 41.45960228 12.11986273 50.28237952 13.66149902 59.10772705 C14.17573836 62.05753227 14.68657533 65.00790583 15.19628906 67.95849609 C16.86041359 77.57545064 18.56953381 87.17738549 20.44116211 96.75634766 C21.32725321 101.89946969 21.98782664 106.61759457 19.9375 111.5625 C16.93408933 113.79083695 14.62113687 113.45264211 11 113 C8.36232494 110.9587254 7.55664297 109.26572514 6.94848633 106.03076172 C6.71786751 104.84572556 6.71786751 104.84572556 6.48258972 103.63674927 C6.32978043 102.78466888 6.17697113 101.9325885 6.01953125 101.0546875 C5.85105179 100.16401581 5.68257233 99.27334412 5.50898743 98.35568237 C3.91613264 89.8280354 2.49036099 81.27140786 1.10549927 72.70788574 C-1.64263931 55.72668865 -4.62398829 38.80057128 -7.86645508 21.90673828 C-8.14926866 20.41178714 -8.43206581 18.91683288 -8.71484375 17.421875 C-8.96355225 16.12862305 -9.21226074 14.83537109 -9.46850586 13.50292969 C-10.74513246 5.08903974 -10.74513246 5.08903974 -8.375 1.625 C-5.28813568 -0.48706506 -3.6717087 -0.61195145 0 0 Z " fill="#1E6DE4" transform="translate(344,214)"/>
<path d="M0 0 C8.53797917 6.98561932 14.46279821 16.6891664 16.0625 27.6875 C16.2907256 32.39081971 16.30850395 37.07804096 16.26831055 41.78588867 C16.25012958 43.98433171 16.24780098 46.18234911 16.24804688 48.38085938 C16.22787557 56.19178233 15.96806544 63.9208956 15.0625 71.6875 C13.4125 71.6875 11.7625 71.6875 10.0625 71.6875 C10.02809814 70.3871582 9.99369629 69.08681641 9.95825195 67.74707031 C9.82306267 62.87068715 9.65723524 57.99572444 9.48266602 53.12060547 C9.41162422 51.02028135 9.34862592 48.91966773 9.29418945 46.81884766 C8.75162516 25.89482882 8.75162516 25.89482882 -1.9765625 8.37109375 C-5.3162679 5.50373712 -8.96847474 3.54727184 -12.9375 1.6875 C-13.741875 1.275 -14.54625 0.8625 -15.375 0.4375 C-26.37111368 -2.78087474 -35.80513923 -0.75106033 -45.80859375 4.37109375 C-47.97532991 5.5983106 -47.97532991 5.5983106 -49.59765625 7.34765625 C-50.03980469 7.78980469 -50.48195312 8.23195313 -50.9375 8.6875 C-51.5975 8.6875 -52.2575 8.6875 -52.9375 8.6875 C-53.20433594 9.22503906 -53.47117188 9.76257813 -53.74609375 10.31640625 C-54.62196893 12.05954144 -55.51209327 13.7955353 -56.41015625 15.52734375 C-56.93480469 16.54957031 -57.45945313 17.57179688 -58 18.625 C-58.52722656 19.64464844 -59.05445313 20.66429688 -59.59765625 21.71484375 C-62.16654541 27.41433253 -62.12255875 32.9598427 -62.21875 39.109375 C-62.23715942 40.00996643 -62.25556885 40.91055786 -62.27453613 41.83843994 C-62.35307076 45.68205144 -62.42125537 49.52582719 -62.48974609 53.36962891 C-62.5413036 56.17880362 -62.59858371 58.98782014 -62.65625 61.796875 C-62.66982544 62.67285339 -62.68340088 63.54883179 -62.6973877 64.45135498 C-62.82460739 70.57460739 -62.82460739 70.57460739 -63.9375 71.6875 C-65.60367115 71.72813832 -67.27138095 71.730221 -68.9375 71.6875 C-71.98384549 21.53159745 -71.98384549 21.53159745 -59.3125 5.0625 C-43.83333299 -12.04814734 -18.19925772 -12.9994698 0 0 Z " fill="#270637" transform="translate(281.9375,40.3125)"/>
<path d="M0 0 C3.85313067 1.12091074 4.43271278 1.68499555 6.4375 5 C7.10629272 7.27345276 7.10629272 7.27345276 7.52490234 9.79907227 C7.68888016 10.75355759 7.85285797 11.70804291 8.02180481 12.69145203 C8.1873436 13.72268692 8.35288239 14.75392181 8.5234375 15.81640625 C8.70569382 16.89320145 8.88795013 17.96999664 9.07572937 19.079422 C9.66488818 22.57215196 10.23874658 26.06720957 10.8125 29.5625 C11.41005788 33.13103098 12.01132001 36.69892461 12.61286926 40.26678467 C13.00787098 42.61100865 13.40158565 44.95544988 13.79399109 47.30010986 C15.43185481 57.06425876 17.20571039 66.7954383 19.11669922 76.51000977 C20.88021777 85.6801478 20.88021777 85.6801478 20.4375 90 C18.12012395 93.04569423 16.65924087 94.73181298 12.875 95.5625 C9.50139503 94.78397578 8.56121683 93.7614641 6.4375 91 C5.45253642 87.88380503 4.99153729 84.71536313 4.5078125 81.48828125 C4.35194672 80.53914352 4.19608093 79.5900058 4.03549194 78.61210632 C3.5297379 75.51442183 3.04614804 72.41370551 2.5625 69.3125 C2.04561873 66.10940613 1.52331878 62.90722502 1.00079346 59.70504761 C0.6508659 57.55783524 0.30284795 55.4103108 -0.04327393 53.26248169 C-1.09464878 46.75829285 -2.20852125 40.2703413 -3.4140625 33.79296875 C-3.556091 33.0292244 -3.69811951 32.26548004 -3.8444519 31.47859192 C-4.37586298 28.63467503 -4.91075436 25.7914976 -5.45550537 22.95010376 C-5.81917699 21.05103686 -6.17538927 19.15054605 -6.53125 17.25 C-6.83192383 15.67992187 -6.83192383 15.67992187 -7.13867188 14.078125 C-8.35232945 5.26372712 -8.35232945 5.26372712 -6 1.5 C-3.5625 0 -3.5625 0 0 0 Z " fill="#1F6DE4" transform="translate(386.5625,223)"/>
<path d="M0 0 C1.51289503 0.00031716 3.0258126 0.01164445 4.53857422 0.03173828 C5.33480194 0.03456818 6.13102966 0.03739807 6.9513855 0.04031372 C9.49882935 0.05152438 12.04592383 0.07663016 14.59326172 0.10205078 C16.31851706 0.11207945 18.04377791 0.1212055 19.76904297 0.12939453 C24.00225086 0.15146656 28.23519702 0.18600212 32.46826172 0.22705078 C35.10307816 5.26014155 35.48327472 9.87811568 33.81591797 15.37939453 C31.10086775 21.45038664 26.78306585 25.30795365 21.09326172 28.60205078 C14.6036012 30.14720805 9.11537657 29.79902987 3.25732422 26.49658203 C-1.16394413 23.35921912 -3.84662064 19.37187897 -5.53173828 14.22705078 C-5.79736328 11.18408203 -5.79736328 11.18408203 -5.78173828 8.03955078 C-5.78689453 6.99412109 -5.79205078 5.94869141 -5.79736328 4.87158203 C-5.36947723 0.61159881 -4.17478635 0.26839149 0 0 Z " fill="#FBFCFE" transform="translate(248.53173828125,459.77294921875)"/>
<path d="M0 0 C2.76628915 -0.2667616 5.30619631 -0.34804189 8.0703125 -0.29296875 C9.26465408 -0.28660149 9.26465408 -0.28660149 10.48312378 -0.28010559 C13.03075729 -0.26328834 15.57760489 -0.22563179 18.125 -0.1875 C19.85024901 -0.17245705 21.57551039 -0.15876796 23.30078125 -0.14648438 C27.53415782 -0.11337501 31.76694559 -0.06157285 36 0 C38.63481645 5.03309077 39.015013 9.65106489 37.34765625 15.15234375 C34.63260603 21.22333586 30.31480413 25.08090287 24.625 28.375 C18.25112852 29.89258845 12.64479068 29.63075362 6.859375 26.4140625 C2.964317 23.45185452 0.17476296 19.34952592 -2 15 C-2.12227926 13.02362586 -2.17549929 11.0426169 -2.1875 9.0625 C-2.20167969 8.00160156 -2.21585937 6.94070313 -2.23046875 5.84765625 C-2 3 -2 3 0 0 Z " fill="#FBFCFE" transform="translate(386,460)"/>
<path d="M0 0 C0 3.63 0 7.26 0 11 C1.65 11 3.3 11 5 11 C5 7.37 5 3.74 5 0 C10.33333333 2.66666667 10.33333333 2.66666667 12 6 C12.12333904 9.59134249 11.93785781 12.76763196 9.71875 15.68359375 C6.53296923 18.1236122 2.9155128 18.32229265 -1 18 C-4.09569145 16.04150133 -5.61626754 14.7028128 -6.4375 11.05859375 C-6.67152465 7.20450037 -6.20846076 5.33353721 -4.125 2 C-2 0 -2 0 0 0 Z " fill="#F1F2F0" transform="translate(292,101)"/>
<path d="M0 0 C0 3.63 0 7.26 0 11 C1.65 10.67 3.3 10.34 5 10 C5.33 6.7 5.66 3.4 6 0 C10 2 10 2 12 5 C12.08203125 7.15625 12.08203125 7.15625 11.8125 9.5 C11.73644531 10.2734375 11.66039062 11.046875 11.58203125 11.84375 C10.88065242 14.44214676 10.15150479 15.39978782 8 17 C4.98929977 17.99229071 2.15710485 18.25986677 -1 18 C-4.09569145 16.04150133 -5.61626754 14.7028128 -6.4375 11.05859375 C-6.67152465 7.20450037 -6.20846076 5.33353721 -4.125 2 C-2 0 -2 0 0 0 Z " fill="#F6F8F5" transform="translate(213,101)"/>
<path d="M0 0 C0.33 2.31 0.66 4.62 1 7 C2.32 7 3.64 7 5 7 C5.33 4.69 5.66 2.38 6 0 C9.875 1.875 9.875 1.875 11 3 C11.28803699 5.92837603 11.48693199 8.15034122 11 11 C8.42627616 14.02791041 6.84753406 14.86162709 2.9375 15.5 C0 15 0 15 -2.3125 13.4375 C-4.55584616 10.1971111 -5 7.92941056 -5 4 C-1.92307692 0 -1.92307692 0 0 0 Z " fill="#FCFAF4" transform="translate(337,76)"/>
<path d="M0 0 C0.66 2.31 1.32 4.62 2 7 C2.99 7 3.98 7 5 7 C5.33 4.69 5.66 2.38 6 0 C9.875 1.875 9.875 1.875 11 3 C11.28803699 5.92837603 11.48693199 8.15034122 11 11 C8.42627616 14.02791041 6.84753406 14.86162709 2.9375 15.5 C0 15 0 15 -2.375 13.5 C-4.80664499 9.75900771 -4.49174842 7.42573582 -4 3 C-1.84375 0 -1.84375 0 0 0 Z " fill="#FAF9F7" transform="translate(406,76)"/>
</svg>
