<?xml version="1.0" encoding="UTF-8"?>
<svg version="1.1" xmlns="http://www.w3.org/2000/svg" width="256" height="256">
<path d="M0 0 C1.59775263 -0.00571204 3.19550119 -0.01267951 4.79324341 -0.02079773 C9.10742844 -0.0386532 13.42140922 -0.03757506 17.73562002 -0.03185534 C21.34867267 -0.02875213 24.96168672 -0.03486856 28.57473385 -0.04089409 C37.1045431 -0.05491301 45.63425214 -0.05340029 54.1640625 -0.04199219 C62.93805086 -0.03051618 71.71173335 -0.04458392 80.48568141 -0.07138866 C88.04271772 -0.0936038 95.59965843 -0.1001699 103.15672505 -0.09431225 C107.65964088 -0.09095503 112.16236077 -0.09327496 116.66524887 -0.11056328 C120.90241942 -0.12612319 125.13913983 -0.12197762 129.37629318 -0.10325813 C130.92254048 -0.09959698 132.4688218 -0.10260769 134.01503754 -0.11314392 C150.13060092 -0.21449157 161.85462233 3.67968805 173.75048828 14.71655273 C184.70852411 26.29485474 186.45425524 39.08348007 186.40454102 54.40356445 C186.41025305 56.00131709 186.41722052 57.59906564 186.42533875 59.19680786 C186.44319421 63.51099289 186.44211608 67.82497368 186.43639636 72.13918447 C186.43329314 75.75223712 186.43940958 79.36525117 186.44543511 82.97829831 C186.45945402 91.50810755 186.4579413 100.03781659 186.4465332 108.56762695 C186.4350572 117.34161531 186.44912493 126.11529781 186.47592968 134.88924587 C186.49814481 142.44628218 186.50471092 150.00322289 186.49885327 157.5602895 C186.49549604 162.06320534 186.49781598 166.56592522 186.51510429 171.06881332 C186.5306642 175.30598388 186.52651863 179.54270428 186.50779915 183.77985764 C186.504138 185.32610493 186.5071487 186.87238626 186.51768494 188.41860199 C186.61903258 204.53416538 182.72485297 216.25818679 171.68798828 228.15405273 C160.10968627 239.11208856 147.32106095 240.8578197 132.00097656 240.80810547 C130.40322393 240.81381751 128.80547537 240.82078497 127.20773315 240.8289032 C122.89354812 240.84675867 118.57956734 240.84568053 114.26535654 240.83996081 C110.6523039 240.8368576 107.03928984 240.84297403 103.42624271 240.84899956 C94.89643346 240.86301848 86.36672443 240.86150576 77.83691406 240.85009766 C69.06292571 240.83862165 60.28924321 240.85268939 51.51529515 240.87949413 C43.95825884 240.90170926 36.40131813 240.90827537 28.84425151 240.90241772 C24.34133568 240.8990605 19.83861579 240.90138043 15.33572769 240.91866875 C11.09855714 240.93422865 6.86183673 240.93008308 2.62468338 240.9113636 C1.07843609 240.90770245 -0.46784524 240.91071316 -2.01406097 240.92124939 C-18.12962436 241.02259703 -29.85364577 237.12841742 -41.74951172 226.09155273 C-52.70754755 214.51325073 -54.45327868 201.7246254 -54.40356445 186.40454102 C-54.40927649 184.80678838 -54.41624396 183.20903983 -54.42436218 181.61129761 C-54.44221765 177.29711258 -54.44113951 172.98313179 -54.4354198 168.66892099 C-54.43231658 165.05586835 -54.43843302 161.44285429 -54.44445854 157.82980716 C-54.45847746 149.29999792 -54.45696474 140.77028888 -54.44555664 132.24047852 C-54.43408064 123.46649016 -54.44814837 114.69280766 -54.47495311 105.9188596 C-54.49716825 98.36182329 -54.50373436 90.80488258 -54.4978767 83.24781597 C-54.49451948 78.74490013 -54.49683942 74.24218025 -54.51412773 69.73929214 C-54.52968764 65.50212159 -54.52554207 61.26540118 -54.50682259 57.02824783 C-54.50316144 55.48200054 -54.50617214 53.93571921 -54.51670837 52.38950348 C-54.61805602 36.27394009 -50.72387641 24.54991868 -39.68701172 12.65405273 C-28.10870971 1.69601691 -15.32008438 -0.04971423 0 0 Z " fill="#31BACE" transform="translate(61.99951171875,7.595947265625)"/>
<path d="M0 0 C6.53751024 4.65479969 11.94068624 11.76174729 13.8046875 19.6640625 C15.58258103 30.23785035 13.57990613 38.72914895 7.5625 47.5625 C2.58410586 53.76981763 -4.91358591 58.66272861 -12.75 60.3125 C-22.57043875 61.28109122 -30.42737337 59.97239244 -38.4375 54.125 C-46.24789973 47.62314891 -51.02702391 40.41730208 -52.06640625 30.203125 C-52.42362962 20.38524409 -50.39546115 13.2109121 -44.1875 5.5625 C-31.9862765 -7.34836314 -14.97751373 -9.20728231 0 0 Z " fill="#000102" transform="translate(143.75,63.6875)"/>
<path d="M0 0 C0.93199219 -0.01224609 1.86398438 -0.02449219 2.82421875 -0.03710938 C3.72269531 -0.03904297 4.62117188 -0.04097656 5.546875 -0.04296875 C6.35479492 -0.04707764 7.16271484 -0.05118652 7.99511719 -0.05541992 C10.47543123 0.21178585 12.10358797 0.94750782 14.25 2.1875 C12.41010708 7.00626718 12.41010708 7.00626718 10.25 9.1875 C7.44262087 9.84007331 4.81903747 9.93936293 1.94140625 10.03515625 C-1.63078878 10.23735597 -3.83507521 11.12572393 -6.75 13.1875 C-9.61985359 16.4349659 -11.00126393 18.95847319 -11.1875 23.25 C-10.74998361 27.18764749 -9.99159115 29.01191254 -7.75 32.1875 C-7.75 32.8475 -7.75 33.5075 -7.75 34.1875 C-3.73553556 36.09343265 -0.60042996 36.32272695 3.8125 36.3125 C9.74847385 36.65418698 9.74847385 36.65418698 11.9140625 38.95703125 C12.88271921 41.00895672 13.55773171 43.0313268 14.25 45.1875 C14.91 45.8475 15.57 46.5075 16.25 47.1875 C16.4453125 49.5703125 16.4453125 49.5703125 16.375 52.3125 C16.35695313 53.22257812 16.33890625 54.13265625 16.3203125 55.0703125 C16.29710937 55.76898438 16.27390625 56.46765625 16.25 57.1875 C7.35721205 57.28030748 -1.53540839 57.35131914 -10.42857552 57.39474869 C-14.55835235 57.41559606 -18.68779709 57.4438609 -22.81738281 57.48925781 C-26.80501429 57.53281833 -30.79232696 57.55665855 -34.78017807 57.56700897 C-36.2992034 57.57438213 -37.8182119 57.58878042 -39.33710098 57.61042023 C-41.47006761 57.63959175 -43.60172827 57.64345054 -45.73486328 57.64160156 C-46.9473172 57.65048401 -48.15977112 57.65936646 -49.40896606 57.66851807 C-53.45373047 57.08618194 -55.58584007 55.73045906 -58.75 53.1875 C-61.89425021 48.47112468 -61.08389522 43.45006144 -61.06567383 37.90063477 C-61.06252771 35.89268568 -61.08680685 33.88475494 -61.11132812 31.87695312 C-61.11197266 30.60142578 -61.11261719 29.32589844 -61.11328125 28.01171875 C-61.11626221 26.84729248 -61.11924316 25.68286621 -61.12231445 24.4831543 C-60.70125254 20.75599709 -59.71015242 18.3709466 -57.75 15.1875 C-54.81640625 13.2109375 -54.81640625 13.2109375 -51.3125 11.5625 C-50.68996338 11.26891602 -50.06742676 10.97533203 -49.42602539 10.67285156 C-33.74903266 3.44990213 -17.2012636 0.01209653 0 0 Z " fill="#000202" transform="translate(124.75,136.8125)"/>
<path d="M0 0 C0.92103516 -0.03738281 1.84207031 -0.07476562 2.79101562 -0.11328125 C8.43524968 -0.18538644 12.27083452 0.57957068 17.05200195 3.61083984 C22.28277163 8.85249033 23.27399156 13.45801288 23.34263611 20.63746643 C23.33140213 21.67620407 23.32016815 22.71494171 23.30859375 23.78515625 C23.31004898 24.87082382 23.31150421 25.95649139 23.31300354 27.07505798 C23.311349 29.3619964 23.29983784 31.64894646 23.27905273 33.93579102 C23.25006487 37.42968146 23.25846097 40.92205621 23.27148438 44.41601562 C23.26524734 46.64323651 23.25685668 48.87045263 23.24609375 51.09765625 C23.24902939 52.13841812 23.25196503 53.17917999 23.25498962 54.2514801 C23.16393219 61.27230145 22.1199158 65.63104608 17.5 71.125 C12.1422303 75.61057463 6.4936178 75.71506237 -0.1875 75.6875 C-0.96867187 75.70361328 -1.74984375 75.71972656 -2.5546875 75.73632812 C-8.6916147 75.74149389 -12.69593688 74.29158701 -17.625 70.5 C-19.1875 68.375 -19.1875 68.375 -19.0625 65.75 C-18.1875 63.375 -18.1875 63.375 -16.1875 61.375 C-12.89035207 61.70471479 -11.5648161 61.9976839 -9.1875 64.375 C-6.0631482 64.84688458 -2.90600061 64.74535541 0.25 64.75 C1.55807617 64.78673828 1.55807617 64.78673828 2.89257812 64.82421875 C3.73111328 64.82808594 4.56964844 64.83195312 5.43359375 64.8359375 C6.2011499 64.84415527 6.96870605 64.85237305 7.75952148 64.86083984 C9.95826086 64.54253366 9.95826086 64.54253366 11.41853333 62.63395691 C13.00476995 60.06342187 13.1825844 58.73603071 13.16894531 55.74584961 C13.17194641 54.83488022 13.17494751 53.92391083 13.17803955 52.9853363 C13.16569275 52.00919876 13.15334595 51.03306122 13.140625 50.02734375 C13.13875183 49.01910049 13.13687866 48.01085724 13.13494873 46.97206116 C13.12823208 44.84291268 13.11432528 42.71377645 13.09375 40.5847168 C13.06258438 37.32133548 13.05277692 34.0584373 13.046875 30.79492188 C13.03770518 28.7265566 13.02732948 26.65819624 13.015625 24.58984375 C13.01137512 23.61168198 13.00712524 22.6335202 13.00274658 21.62571716 C12.99313904 20.71789993 12.98353149 19.8100827 12.97363281 18.87475586 C12.96339081 17.67706825 12.96339081 17.67706825 12.95294189 16.45518494 C12.8868827 14.17880568 12.8868827 14.17880568 11.8125 11.375 C7.98847038 10.10032346 4.36031344 10.15176953 0.375 10.125 C-0.38876953 10.104375 -1.15253906 10.08375 -1.93945312 10.0625 C-6.39194317 10.0314992 -8.78781245 10.23619974 -12.1875 13.375 C-14.8125 13.6875 -14.8125 13.6875 -17.1875 13.375 C-19.1875 11.375 -19.1875 11.375 -19.6875 9.0625 C-18.92718822 4.97582416 -16.48290041 3.701165 -13.1875 1.375 C-8.81868631 -0.08127123 -4.57804833 0.06903157 0 0 Z " fill="#010404" transform="translate(169.1875,122.625)"/>
<path d="M0 0 C3.6666239 0.05670037 5.00271236 1.00236667 7.7890625 3.43359375 C8.74478836 4.42496132 9.68991906 5.4266364 10.625 6.4375 C13.29132045 9.25154901 15.74951909 11.83301272 19 14 C19.6015625 16.6640625 19.6015625 16.6640625 19 20 C17.10098038 22.78432233 14.79550243 25.04216164 12.375 27.375 C11.75753906 28.01566406 11.14007813 28.65632813 10.50390625 29.31640625 C5.88626528 33.87571912 5.88626528 33.87571912 1.6015625 34.4765625 C-1 34 -1 34 -2 33 C-2.3125 30.1875 -2.3125 30.1875 -2 27 C0.01953125 24.80078125 0.01953125 24.80078125 2 23 C1.28344238 22.98018066 0.56688477 22.96036133 -0.17138672 22.93994141 C-3.4063063 22.84490481 -6.64056094 22.73513981 -9.875 22.625 C-11.00292969 22.5940625 -12.13085938 22.563125 -13.29296875 22.53125 C-14.90751953 22.47324219 -14.90751953 22.47324219 -16.5546875 22.4140625 C-17.54968262 22.3826416 -18.54467773 22.3512207 -19.56982422 22.31884766 C-22 22 -22 22 -24 20 C-24.25 17.5 -24.25 17.5 -24 15 C-21.39911378 12.39911378 -20.17862887 12.70037775 -16.5546875 12.5859375 C-15.47832031 12.54726562 -14.40195313 12.50859375 -13.29296875 12.46875 C-12.16503906 12.4378125 -11.03710938 12.406875 -9.875 12.375 C-8.73933594 12.33632812 -7.60367188 12.29765625 -6.43359375 12.2578125 C-3.62256044 12.16332399 -0.81153767 12.07776459 2 12 C1.34773438 11.40445313 0.69546875 10.80890625 0.0234375 10.1953125 C-2 8 -2 8 -2.375 4.875 C-2 2 -2 2 0 0 Z " fill="#000202" transform="translate(147,143)"/>
</svg>
